<svg xmlns="http://www.w3.org/2000/svg" xmlns:xlink="http://www.w3.org/1999/xlink" width="500" zoomAndPan="magnify" viewBox="0 0 375 74.999997" height="100" preserveAspectRatio="xMidYMid meet" version="1.0"><defs><g/><clipPath id="15b529c8a5"><path d="M 21 7.5 L 37 7.5 L 37 25 L 21 25 Z M 21 7.5 " clip-rule="nonzero"/></clipPath><clipPath id="0c3c91ee2a"><path d="M 10.035156 18 L 50 18 L 50 67.5 L 10.035156 67.5 Z M 10.035156 18 " clip-rule="nonzero"/></clipPath><clipPath id="246dc9c111"><path d="M 13 18 L 52.785156 18 L 52.785156 67.5 L 13 67.5 Z M 13 18 " clip-rule="nonzero"/></clipPath><clipPath id="50014f65d5"><path d="M 25 7.5 L 41 7.5 L 41 25 L 25 25 Z M 25 7.5 " clip-rule="nonzero"/></clipPath><clipPath id="1f0f4bbc98"><path d="M 17.238281 30.511719 L 48.738281 30.511719 L 48.738281 53.761719 L 17.238281 53.761719 Z M 17.238281 30.511719 " clip-rule="nonzero"/></clipPath></defs><g fill="#f9af23" fill-opacity="1"><g transform="translate(68.978755, 58.470115)"><g><path d="M 18.34375 -34.84375 L 4.75 -1.0625 C 4.601562 -0.6875 4.398438 -0.40625 4.140625 -0.21875 C 3.878906 -0.03125 3.582031 0.0625 3.25 0.0625 C 2.71875 0.0625 2.320312 -0.078125 2.0625 -0.359375 C 1.800781 -0.640625 1.65625 -0.984375 1.625 -1.390625 C 1.582031 -1.578125 1.597656 -1.800781 1.671875 -2.0625 L 16.4375 -38.1875 C 16.625 -38.601562 16.859375 -38.894531 17.140625 -39.0625 C 17.421875 -39.226562 17.75 -39.3125 18.125 -39.3125 C 18.488281 -39.3125 18.8125 -39.207031 19.09375 -39 C 19.375 -38.800781 19.585938 -38.53125 19.734375 -38.1875 L 34.453125 -2.234375 C 34.523438 -2.015625 34.5625 -1.789062 34.5625 -1.5625 C 34.5625 -1.039062 34.390625 -0.640625 34.046875 -0.359375 C 33.710938 -0.078125 33.320312 0.0625 32.875 0.0625 C 32.507812 0.0625 32.1875 -0.0390625 31.90625 -0.25 C 31.625 -0.457031 31.410156 -0.726562 31.265625 -1.0625 L 17.328125 -35.0625 Z M 8 -11.296875 L 9.390625 -14.59375 L 26.734375 -14.59375 L 27.40625 -11.296875 Z M 8 -11.296875 "/></g></g></g><g fill="#f9af23" fill-opacity="1"><g transform="translate(105.159162, 58.470115)"><g><path d="M 6.4375 0 C 5.945312 0 5.539062 -0.164062 5.21875 -0.5 C 4.90625 -0.832031 4.75 -1.222656 4.75 -1.671875 L 4.75 -39.703125 C 4.75 -40.148438 4.90625 -40.539062 5.21875 -40.875 C 5.539062 -41.207031 5.945312 -41.375 6.4375 -41.375 C 6.914062 -41.375 7.3125 -41.207031 7.625 -40.875 C 7.945312 -40.539062 8.109375 -40.148438 8.109375 -39.703125 L 8.109375 -1.671875 C 8.109375 -1.222656 7.945312 -0.832031 7.625 -0.5 C 7.3125 -0.164062 6.914062 0 6.4375 0 Z M 25.4375 -28.6875 C 25.851562 -28.6875 26.226562 -28.507812 26.5625 -28.15625 C 26.894531 -27.800781 27.0625 -27.421875 27.0625 -27.015625 C 27.0625 -26.523438 26.859375 -26.09375 26.453125 -25.71875 L 7.65625 -9.734375 L 7.5 -13.703125 L 24.265625 -28.125 C 24.597656 -28.5 24.988281 -28.6875 25.4375 -28.6875 Z M 25.890625 0 C 25.410156 0 25 -0.203125 24.65625 -0.609375 L 11.90625 -14.140625 L 14.421875 -16.4375 L 27.0625 -2.96875 C 27.394531 -2.59375 27.5625 -2.160156 27.5625 -1.671875 C 27.5625 -1.148438 27.359375 -0.738281 26.953125 -0.4375 C 26.546875 -0.144531 26.191406 0 25.890625 0 Z M 25.890625 0 "/></g></g></g><g fill="#f9af23" fill-opacity="1"><g transform="translate(135.0765, 58.470115)"><g><path d="M 2.578125 -28.46875 L 15.609375 -28.46875 C 16.046875 -28.46875 16.414062 -28.304688 16.71875 -27.984375 C 17.019531 -27.671875 17.171875 -27.289062 17.171875 -26.84375 C 17.171875 -26.4375 17.019531 -26.082031 16.71875 -25.78125 C 16.414062 -25.476562 16.046875 -25.328125 15.609375 -25.328125 L 2.578125 -25.328125 C 2.128906 -25.328125 1.742188 -25.484375 1.421875 -25.796875 C 1.109375 -26.117188 0.953125 -26.484375 0.953125 -26.890625 C 0.953125 -27.335938 1.109375 -27.710938 1.421875 -28.015625 C 1.742188 -28.316406 2.128906 -28.46875 2.578125 -28.46875 Z M 8.328125 -36.34375 C 8.816406 -36.34375 9.21875 -36.175781 9.53125 -35.84375 C 9.851562 -35.507812 10.015625 -35.117188 10.015625 -34.671875 L 10.015625 -6.59375 C 10.015625 -5.550781 10.148438 -4.769531 10.421875 -4.25 C 10.703125 -3.726562 11.066406 -3.382812 11.515625 -3.21875 C 11.960938 -3.050781 12.410156 -2.96875 12.859375 -2.96875 C 13.160156 -2.96875 13.429688 -3.015625 13.671875 -3.109375 C 13.910156 -3.203125 14.179688 -3.25 14.484375 -3.25 C 14.816406 -3.25 15.101562 -3.113281 15.34375 -2.84375 C 15.59375 -2.582031 15.71875 -2.25 15.71875 -1.84375 C 15.71875 -1.320312 15.414062 -0.882812 14.8125 -0.53125 C 14.21875 -0.175781 13.507812 0 12.6875 0 C 12.351562 0 11.847656 -0.0234375 11.171875 -0.078125 C 10.503906 -0.140625 9.816406 -0.347656 9.109375 -0.703125 C 8.398438 -1.054688 7.8125 -1.679688 7.34375 -2.578125 C 6.882812 -3.472656 6.65625 -4.757812 6.65625 -6.4375 L 6.65625 -34.671875 C 6.65625 -35.117188 6.8125 -35.507812 7.125 -35.84375 C 7.445312 -36.175781 7.847656 -36.34375 8.328125 -36.34375 Z M 8.328125 -36.34375 "/></g></g></g><g fill="#f9af23" fill-opacity="1"><g transform="translate(154.033473, 58.470115)"><g><path d="M 25.78125 -28.40625 C 26.257812 -28.40625 26.65625 -28.238281 26.96875 -27.90625 C 27.289062 -27.570312 27.453125 -27.179688 27.453125 -26.734375 L 27.453125 -10.953125 C 27.453125 -7.265625 26.40625 -4.453125 24.3125 -2.515625 C 22.226562 -0.578125 19.414062 0.390625 15.875 0.390625 C 12.375 0.390625 9.585938 -0.578125 7.515625 -2.515625 C 5.453125 -4.453125 4.421875 -7.265625 4.421875 -10.953125 L 4.421875 -26.734375 C 4.421875 -27.179688 4.578125 -27.570312 4.890625 -27.90625 C 5.210938 -28.238281 5.613281 -28.40625 6.09375 -28.40625 C 6.582031 -28.40625 6.984375 -28.238281 7.296875 -27.90625 C 7.609375 -27.570312 7.765625 -27.179688 7.765625 -26.734375 L 7.765625 -10.953125 C 7.765625 -8.273438 8.484375 -6.234375 9.921875 -4.828125 C 11.359375 -3.429688 13.34375 -2.734375 15.875 -2.734375 C 18.445312 -2.734375 20.460938 -3.429688 21.921875 -4.828125 C 23.378906 -6.234375 24.109375 -8.273438 24.109375 -10.953125 L 24.109375 -26.734375 C 24.109375 -27.179688 24.253906 -27.570312 24.546875 -27.90625 C 24.847656 -28.238281 25.257812 -28.40625 25.78125 -28.40625 Z M 20.75 -33.484375 C 20 -33.484375 19.425781 -33.679688 19.03125 -34.078125 C 18.644531 -34.472656 18.453125 -35.023438 18.453125 -35.734375 L 18.453125 -36.28125 C 18.453125 -36.988281 18.65625 -37.539062 19.0625 -37.9375 C 19.476562 -38.332031 20.054688 -38.53125 20.796875 -38.53125 C 21.503906 -38.53125 22.050781 -38.332031 22.4375 -37.9375 C 22.832031 -37.539062 23.03125 -36.988281 23.03125 -36.28125 L 23.03125 -35.734375 C 23.03125 -34.984375 22.828125 -34.421875 22.421875 -34.046875 C 22.015625 -33.671875 21.457031 -33.484375 20.75 -33.484375 Z M 11.125 -33.484375 C 10.375 -33.484375 9.800781 -33.679688 9.40625 -34.078125 C 9.019531 -34.472656 8.828125 -35.023438 8.828125 -35.734375 L 8.828125 -36.28125 C 8.828125 -36.988281 9.03125 -37.539062 9.4375 -37.9375 C 9.851562 -38.332031 10.414062 -38.53125 11.125 -38.53125 C 11.875 -38.53125 12.441406 -38.332031 12.828125 -37.9375 C 13.222656 -37.539062 13.421875 -36.988281 13.421875 -36.28125 L 13.421875 -35.734375 C 13.421875 -34.984375 13.210938 -34.421875 12.796875 -34.046875 C 12.390625 -33.671875 11.832031 -33.484375 11.125 -33.484375 Z M 11.125 -33.484375 "/></g></g></g><g fill="#f9af23" fill-opacity="1"><g transform="translate(185.852102, 58.470115)"><g><path d="M 17.328125 0.5625 C 14.460938 0.5625 11.929688 -0.0507812 9.734375 -1.28125 C 7.535156 -2.507812 5.816406 -4.222656 4.578125 -6.421875 C 3.347656 -8.628906 2.734375 -11.203125 2.734375 -14.140625 C 2.734375 -17.316406 3.359375 -20.019531 4.609375 -22.25 C 5.859375 -24.488281 7.476562 -26.210938 9.46875 -27.421875 C 11.46875 -28.640625 13.585938 -29.25 15.828125 -29.25 C 17.460938 -29.25 19.050781 -28.957031 20.59375 -28.375 C 22.144531 -27.800781 23.523438 -26.945312 24.734375 -25.8125 C 25.953125 -24.675781 26.925781 -23.285156 27.65625 -21.640625 C 28.382812 -20.003906 28.785156 -18.101562 28.859375 -15.9375 C 28.816406 -15.488281 28.628906 -15.101562 28.296875 -14.78125 C 27.960938 -14.46875 27.570312 -14.3125 27.125 -14.3125 L 4.703125 -14.3125 L 4.03125 -17.328125 L 26.0625 -17.328125 L 25.328125 -16.671875 L 25.328125 -17.78125 C 25.179688 -19.53125 24.625 -21.019531 23.65625 -22.25 C 22.6875 -23.488281 21.507812 -24.421875 20.125 -25.046875 C 18.75 -25.679688 17.316406 -26 15.828125 -26 C 14.703125 -26 13.550781 -25.773438 12.375 -25.328125 C 11.207031 -24.878906 10.144531 -24.179688 9.1875 -23.234375 C 8.238281 -22.285156 7.46875 -21.070312 6.875 -19.59375 C 6.28125 -18.125 5.984375 -16.382812 5.984375 -14.375 C 5.984375 -12.175781 6.429688 -10.179688 7.328125 -8.390625 C 8.222656 -6.597656 9.515625 -5.179688 11.203125 -4.140625 C 12.898438 -3.097656 14.925781 -2.578125 17.28125 -2.578125 C 18.582031 -2.578125 19.753906 -2.757812 20.796875 -3.125 C 21.847656 -3.5 22.765625 -3.992188 23.546875 -4.609375 C 24.328125 -5.222656 24.976562 -5.867188 25.5 -6.546875 C 25.90625 -6.878906 26.316406 -7.046875 26.734375 -7.046875 C 27.109375 -7.046875 27.429688 -6.894531 27.703125 -6.59375 C 27.984375 -6.300781 28.125 -5.96875 28.125 -5.59375 C 28.125 -5.144531 27.9375 -4.753906 27.5625 -4.421875 C 26.445312 -3.078125 24.992188 -1.910156 23.203125 -0.921875 C 21.410156 0.0664062 19.453125 0.5625 17.328125 0.5625 Z M 17.328125 0.5625 "/></g></g></g><g fill="#f9af23" fill-opacity="1"><g transform="translate(217.447045, 58.470115)"><g><path d="M 8.109375 -1.671875 C 8.109375 -1.222656 7.941406 -0.832031 7.609375 -0.5 C 7.273438 -0.164062 6.882812 0 6.4375 0 C 5.945312 0 5.539062 -0.164062 5.21875 -0.5 C 4.90625 -0.832031 4.75 -1.222656 4.75 -1.671875 L 4.75 -39.703125 C 4.75 -40.148438 4.914062 -40.539062 5.25 -40.875 C 5.59375 -41.207031 5.988281 -41.375 6.4375 -41.375 C 6.914062 -41.375 7.3125 -41.207031 7.625 -40.875 C 7.945312 -40.539062 8.109375 -40.148438 8.109375 -39.703125 Z M 8.109375 -1.671875 "/></g></g></g><g fill="#f9af23" fill-opacity="1"><g transform="translate(230.308703, 58.470115)"><g><path d="M 16.890625 0 C 16.367188 0 15.945312 -0.164062 15.625 -0.5 C 15.3125 -0.832031 15.15625 -1.222656 15.15625 -1.671875 L 15.15625 -37.296875 L 18.625 -37.296875 L 18.625 -1.671875 C 18.625 -1.222656 18.453125 -0.832031 18.109375 -0.5 C 17.773438 -0.164062 17.367188 0 16.890625 0 Z M 3.578125 -35.953125 C 3.128906 -35.953125 2.738281 -36.101562 2.40625 -36.40625 C 2.070312 -36.707031 1.90625 -37.097656 1.90625 -37.578125 C 1.90625 -38.023438 2.070312 -38.394531 2.40625 -38.6875 C 2.738281 -38.988281 3.128906 -39.140625 3.578125 -39.140625 L 30.203125 -39.140625 C 30.648438 -39.140625 31.039062 -38.988281 31.375 -38.6875 C 31.707031 -38.394531 31.875 -38.007812 31.875 -37.53125 C 31.875 -37.039062 31.707031 -36.65625 31.375 -36.375 C 31.039062 -36.09375 30.648438 -35.953125 30.203125 -35.953125 Z M 3.578125 -35.953125 "/></g></g></g><g fill="#f9af23" fill-opacity="1"><g transform="translate(264.084557, 58.470115)"><g><path d="M 27.84375 -28.578125 C 28.332031 -28.578125 28.734375 -28.40625 29.046875 -28.0625 C 29.367188 -27.726562 29.53125 -27.320312 29.53125 -26.84375 L 29.53125 -1.671875 C 29.53125 -1.222656 29.359375 -0.832031 29.015625 -0.5 C 28.679688 -0.164062 28.289062 0 27.84375 0 C 27.363281 0 26.960938 -0.164062 26.640625 -0.5 C 26.328125 -0.832031 26.171875 -1.222656 26.171875 -1.671875 L 26.171875 -8.328125 L 27.125 -8.78125 C 27.125 -7.738281 26.832031 -6.675781 26.25 -5.59375 C 25.675781 -4.507812 24.882812 -3.5 23.875 -2.5625 C 22.875 -1.632812 21.691406 -0.878906 20.328125 -0.296875 C 18.960938 0.273438 17.5 0.5625 15.9375 0.5625 C 13.40625 0.5625 11.140625 -0.0859375 9.140625 -1.390625 C 7.148438 -2.703125 5.582031 -4.492188 4.4375 -6.765625 C 3.300781 -9.035156 2.734375 -11.585938 2.734375 -14.421875 C 2.734375 -17.335938 3.3125 -19.898438 4.46875 -22.109375 C 5.625 -24.328125 7.191406 -26.070312 9.171875 -27.34375 C 11.148438 -28.613281 13.382812 -29.25 15.875 -29.25 C 17.476562 -29.25 18.976562 -28.96875 20.375 -28.40625 C 21.78125 -27.84375 23.003906 -27.078125 24.046875 -26.109375 C 25.085938 -25.140625 25.894531 -24.03125 26.46875 -22.78125 C 27.050781 -21.539062 27.34375 -20.25 27.34375 -18.90625 L 26.171875 -19.734375 L 26.171875 -26.84375 C 26.171875 -27.320312 26.328125 -27.726562 26.640625 -28.0625 C 26.960938 -28.40625 27.363281 -28.578125 27.84375 -28.578125 Z M 16.21875 -2.578125 C 18.195312 -2.578125 19.945312 -3.085938 21.46875 -4.109375 C 23 -5.128906 24.203125 -6.546875 25.078125 -8.359375 C 25.953125 -10.171875 26.390625 -12.191406 26.390625 -14.421875 C 26.390625 -16.628906 25.953125 -18.609375 25.078125 -20.359375 C 24.203125 -22.109375 23 -23.503906 21.46875 -24.546875 C 19.945312 -25.585938 18.195312 -26.109375 16.21875 -26.109375 C 14.28125 -26.109375 12.535156 -25.601562 10.984375 -24.59375 C 9.441406 -23.59375 8.234375 -22.21875 7.359375 -20.46875 C 6.484375 -18.71875 6.046875 -16.703125 6.046875 -14.421875 C 6.046875 -12.191406 6.484375 -10.171875 7.359375 -8.359375 C 8.234375 -6.546875 9.429688 -5.128906 10.953125 -4.109375 C 12.484375 -3.085938 14.238281 -2.578125 16.21875 -2.578125 Z M 16.21875 -2.578125 "/></g></g></g><g fill="#f9af23" fill-opacity="1"><g transform="translate(297.972232, 58.470115)"><g><path d="M 6.4375 0 C 5.945312 0 5.539062 -0.164062 5.21875 -0.5 C 4.90625 -0.832031 4.75 -1.222656 4.75 -1.671875 L 4.75 -39.703125 C 4.75 -40.148438 4.90625 -40.539062 5.21875 -40.875 C 5.539062 -41.207031 5.945312 -41.375 6.4375 -41.375 C 6.914062 -41.375 7.3125 -41.207031 7.625 -40.875 C 7.945312 -40.539062 8.109375 -40.148438 8.109375 -39.703125 L 8.109375 -1.671875 C 8.109375 -1.222656 7.945312 -0.832031 7.625 -0.5 C 7.3125 -0.164062 6.914062 0 6.4375 0 Z M 25.4375 -28.6875 C 25.851562 -28.6875 26.226562 -28.507812 26.5625 -28.15625 C 26.894531 -27.800781 27.0625 -27.421875 27.0625 -27.015625 C 27.0625 -26.523438 26.859375 -26.09375 26.453125 -25.71875 L 7.65625 -9.734375 L 7.5 -13.703125 L 24.265625 -28.125 C 24.597656 -28.5 24.988281 -28.6875 25.4375 -28.6875 Z M 25.890625 0 C 25.410156 0 25 -0.203125 24.65625 -0.609375 L 11.90625 -14.140625 L 14.421875 -16.4375 L 27.0625 -2.96875 C 27.394531 -2.59375 27.5625 -2.160156 27.5625 -1.671875 C 27.5625 -1.148438 27.359375 -0.738281 26.953125 -0.4375 C 26.546875 -0.144531 26.191406 0 25.890625 0 Z M 25.890625 0 "/></g></g></g><g fill="#f9af23" fill-opacity="1"><g transform="translate(327.88957, 58.470115)"><g><path d="M 7.65625 -1.671875 C 7.65625 -1.222656 7.488281 -0.832031 7.15625 -0.5 C 6.820312 -0.164062 6.429688 0 5.984375 0 C 5.492188 0 5.09375 -0.164062 4.78125 -0.5 C 4.46875 -0.832031 4.3125 -1.222656 4.3125 -1.671875 L 4.3125 -27.40625 C 4.3125 -27.851562 4.46875 -28.242188 4.78125 -28.578125 C 5.09375 -28.910156 5.492188 -29.078125 5.984375 -29.078125 C 6.460938 -29.078125 6.859375 -28.910156 7.171875 -28.578125 C 7.492188 -28.242188 7.65625 -27.851562 7.65625 -27.40625 Z M 5.984375 -32.8125 C 5.203125 -32.8125 4.613281 -32.988281 4.21875 -33.34375 C 3.832031 -33.695312 3.640625 -34.210938 3.640625 -34.890625 L 3.640625 -35.453125 C 3.640625 -36.117188 3.851562 -36.628906 4.28125 -36.984375 C 4.707031 -37.335938 5.296875 -37.515625 6.046875 -37.515625 C 6.753906 -37.515625 7.300781 -37.335938 7.6875 -36.984375 C 8.082031 -36.628906 8.28125 -36.117188 8.28125 -35.453125 L 8.28125 -34.890625 C 8.28125 -34.210938 8.082031 -33.695312 7.6875 -33.34375 C 7.300781 -32.988281 6.734375 -32.8125 5.984375 -32.8125 Z M 5.984375 -32.8125 "/></g></g></g><g fill="#f9af23" fill-opacity="1"><g transform="translate(339.856514, 58.470115)"><g><path d="M 18 -28.796875 C 20.539062 -28.796875 22.789062 -28.171875 24.75 -26.921875 C 26.707031 -25.671875 28.265625 -23.957031 29.421875 -21.78125 C 30.578125 -19.601562 31.15625 -17.097656 31.15625 -14.265625 C 31.15625 -11.429688 30.578125 -8.910156 29.421875 -6.703125 C 28.265625 -4.503906 26.695312 -2.769531 24.71875 -1.5 C 22.738281 -0.238281 20.519531 0.390625 18.0625 0.390625 C 16.757812 0.390625 15.519531 0.195312 14.34375 -0.1875 C 13.164062 -0.582031 12.09375 -1.113281 11.125 -1.78125 C 10.15625 -2.457031 9.296875 -3.25 8.546875 -4.15625 C 7.804688 -5.070312 7.210938 -6.070312 6.765625 -7.15625 L 7.765625 -7.890625 L 7.765625 9.5 C 7.765625 9.945312 7.609375 10.335938 7.296875 10.671875 C 6.984375 11.015625 6.582031 11.1875 6.09375 11.1875 C 5.613281 11.1875 5.210938 11.015625 4.890625 10.671875 C 4.578125 10.335938 4.421875 9.945312 4.421875 9.5 L 4.421875 -26.953125 C 4.421875 -27.441406 4.566406 -27.851562 4.859375 -28.1875 C 5.160156 -28.519531 5.570312 -28.6875 6.09375 -28.6875 C 6.582031 -28.6875 6.984375 -28.519531 7.296875 -28.1875 C 7.609375 -27.851562 7.765625 -27.441406 7.765625 -26.953125 L 7.765625 -20.921875 L 6.984375 -21.359375 C 7.359375 -22.515625 7.910156 -23.546875 8.640625 -24.453125 C 9.367188 -25.367188 10.21875 -26.15625 11.1875 -26.8125 C 12.15625 -27.46875 13.21875 -27.960938 14.375 -28.296875 C 15.53125 -28.628906 16.738281 -28.796875 18 -28.796875 Z M 17.734375 -25.671875 C 15.710938 -25.671875 13.9375 -25.175781 12.40625 -24.1875 C 10.882812 -23.195312 9.6875 -21.851562 8.8125 -20.15625 C 7.9375 -18.457031 7.5 -16.492188 7.5 -14.265625 C 7.5 -12.054688 7.9375 -10.078125 8.8125 -8.328125 C 9.6875 -6.578125 10.882812 -5.207031 12.40625 -4.21875 C 13.9375 -3.226562 15.710938 -2.734375 17.734375 -2.734375 C 19.703125 -2.734375 21.441406 -3.226562 22.953125 -4.21875 C 24.460938 -5.207031 25.664062 -6.578125 26.5625 -8.328125 C 27.457031 -10.078125 27.90625 -12.054688 27.90625 -14.265625 C 27.90625 -16.460938 27.457031 -18.414062 26.5625 -20.125 C 25.664062 -21.84375 24.460938 -23.195312 22.953125 -24.1875 C 21.441406 -25.175781 19.703125 -25.671875 17.734375 -25.671875 Z M 17.734375 -25.671875 "/></g></g></g><g clip-path="url(#15b529c8a5)"><path stroke-linecap="round" transform="matrix(0.0260571, 0, 0, -0.0260643, -23.98628, 93.355772)" fill="none" stroke-linejoin="round" d="M 2306.152249 2673.538983 L 2306.152249 2995.759051 C 2306.152249 3141.582365 2188.022471 3259.829636 2042.159179 3259.829636 C 1896.145977 3259.829636 1778.016199 3141.582365 1778.016199 2995.759051 L 1778.016199 2673.538983 " stroke="#100f0f" stroke-width="68.362999" stroke-opacity="1" stroke-miterlimit="10"/></g><g clip-path="url(#0c3c91ee2a)"><path fill="#f79326" d="M 49.238281 65.335938 C 49.238281 66.523438 48.265625 67.496094 47.074219 67.496094 L 12.207031 67.496094 C 11.019531 67.496094 10.042969 66.523438 10.042969 65.335938 L 14.097656 20.230469 C 14.097656 19.042969 15.074219 18.070312 16.261719 18.070312 L 43.019531 18.070312 C 44.210938 18.070312 45.183594 19.042969 45.183594 20.230469 L 49.238281 65.335938 " fill-opacity="1" fill-rule="nonzero"/></g><g clip-path="url(#246dc9c111)"><path fill="#f9af23" d="M 52.777344 65.335938 C 52.777344 66.523438 51.804688 67.496094 50.617188 67.496094 L 15.746094 67.496094 C 14.558594 67.496094 13.582031 66.523438 13.582031 65.335938 L 17.640625 20.230469 C 17.640625 19.042969 18.613281 18.070312 19.804688 18.070312 L 46.5625 18.070312 C 47.75 18.070312 48.722656 19.042969 48.722656 20.230469 L 52.777344 65.335938 " fill-opacity="1" fill-rule="nonzero"/></g><path fill="#f79326" d="M 28.238281 23.671875 C 28.238281 24.816406 27.316406 25.738281 26.171875 25.738281 C 25.03125 25.738281 24.105469 24.816406 24.105469 23.671875 C 24.105469 22.527344 25.03125 21.601562 26.171875 21.601562 C 27.316406 21.601562 28.238281 22.527344 28.238281 23.671875 " fill-opacity="1" fill-rule="nonzero"/><path fill="#f79326" d="M 42.257812 23.671875 C 42.257812 24.816406 41.328125 25.738281 40.191406 25.738281 C 39.046875 25.738281 38.121094 24.816406 38.121094 23.671875 C 38.121094 22.527344 39.046875 21.601562 40.191406 21.601562 C 41.328125 21.601562 42.257812 22.527344 42.257812 23.671875 " fill-opacity="1" fill-rule="nonzero"/><g clip-path="url(#50014f65d5)"><path stroke-linecap="round" transform="matrix(0.0260571, 0, 0, -0.0260643, -23.98628, 93.355772)" fill="none" stroke-linejoin="round" d="M 2458.011977 2673.538983 L 2458.011977 2995.759051 C 2458.011977 3141.582365 2339.732288 3259.829636 2193.868996 3259.829636 C 2048.005704 3259.829636 1929.726015 3141.582365 1929.726015 2995.759051 L 1929.726015 2673.538983 " stroke="#141515" stroke-width="68.362999" stroke-opacity="1" stroke-miterlimit="10"/></g><g clip-path="url(#1f0f4bbc98)"><path fill="#ffffff" d="M 48.332031 41.105469 C 48.296875 41.0625 48.234375 41.054688 48.1875 41.085938 C 47.378906 41.675781 46.519531 42.171875 45.625 42.574219 C 44.726562 42.980469 43.796875 43.28125 42.839844 43.515625 C 40.933594 43.96875 38.96875 44.105469 37.011719 44.039062 C 36.875 44.03125 36.742188 44.027344 36.605469 44.019531 C 36.519531 43.605469 36.445312 43.191406 36.367188 42.777344 L 36.082031 41.300781 C 35.984375 40.808594 35.894531 40.3125 35.792969 39.820312 C 35.589844 38.839844 35.382812 37.851562 35.164062 36.867188 C 34.9375 35.886719 34.707031 34.90625 34.449219 33.921875 C 34.316406 33.429688 34.183594 32.933594 34.027344 32.429688 C 33.949219 32.179688 33.867188 31.925781 33.757812 31.648438 C 33.730469 31.578125 33.699219 31.507812 33.664062 31.429688 C 33.632812 31.351562 33.59375 31.273438 33.535156 31.171875 C 33.503906 31.117188 33.472656 31.066406 33.421875 30.996094 C 33.40625 30.976562 33.394531 30.957031 33.375 30.9375 C 33.355469 30.917969 33.34375 30.898438 33.316406 30.875 C 33.292969 30.847656 33.273438 30.828125 33.234375 30.796875 C 33.199219 30.769531 33.160156 30.738281 33.109375 30.707031 C 33.058594 30.671875 33 30.632812 32.902344 30.59375 C 32.832031 30.5625 32.675781 30.523438 32.535156 30.519531 C 32.394531 30.519531 32.269531 30.539062 32.167969 30.574219 C 32.078125 30.609375 31.984375 30.652344 31.941406 30.6875 C 31.875 30.722656 31.835938 30.757812 31.796875 30.789062 C 31.761719 30.820312 31.742188 30.839844 31.707031 30.875 C 31.683594 30.898438 31.664062 30.917969 31.644531 30.945312 C 31.625 30.964844 31.613281 30.984375 31.597656 31.003906 C 31.496094 31.144531 31.449219 31.234375 31.40625 31.320312 C 31.359375 31.402344 31.328125 31.480469 31.292969 31.550781 C 31.230469 31.695312 31.179688 31.824219 31.132812 31.953125 C 31.035156 32.210938 30.953125 32.457031 30.875 32.703125 C 30.714844 33.191406 30.570312 33.675781 30.421875 34.160156 C 30.273438 34.644531 30.136719 35.125 29.996094 35.609375 L 29.578125 37.050781 C 29.035156 38.921875 28.492188 40.78125 27.890625 42.609375 L 26.792969 42.351562 C 26.539062 42.292969 26.292969 42.242188 26.023438 42.191406 C 25.886719 42.164062 25.753906 42.140625 25.597656 42.121094 C 25.519531 42.113281 25.433594 42.101562 25.339844 42.101562 C 25.285156 42.101562 25.234375 42.101562 25.164062 42.101562 C 25.09375 42.105469 25.023438 42.113281 24.894531 42.144531 C 24.828125 42.164062 24.757812 42.183594 24.652344 42.242188 C 24.601562 42.269531 24.550781 42.308594 24.484375 42.359375 C 24.425781 42.410156 24.363281 42.476562 24.304688 42.558594 C 24.246094 42.644531 24.207031 42.742188 24.183594 42.835938 C 24.15625 42.933594 24.148438 43.023438 24.148438 43.101562 C 24.148438 43.257812 24.183594 43.359375 24.207031 43.4375 C 24.222656 43.476562 24.234375 43.507812 24.253906 43.542969 C 24.273438 43.582031 24.285156 43.605469 24.296875 43.632812 C 24.3125 43.65625 24.332031 43.683594 24.351562 43.710938 C 24.363281 43.730469 24.382812 43.75 24.394531 43.769531 C 24.453125 43.84375 24.503906 43.898438 24.558594 43.941406 C 24.652344 44.03125 24.738281 44.089844 24.816406 44.140625 C 24.894531 44.195312 24.964844 44.234375 25.035156 44.277344 C 25.304688 44.433594 25.558594 44.542969 25.804688 44.644531 C 26.21875 44.820312 26.617188 44.976562 27.019531 45.125 C 26.964844 45.261719 26.914062 45.402344 26.863281 45.539062 C 26.6875 45.996094 26.5 46.449219 26.3125 46.894531 C 26.121094 47.347656 25.921875 47.785156 25.707031 48.21875 C 25.28125 49.089844 24.808594 49.929688 24.257812 50.6875 C 23.980469 51.0625 23.683594 51.421875 23.355469 51.734375 C 23.027344 52.042969 22.671875 52.3125 22.289062 52.5 C 21.902344 52.6875 21.488281 52.800781 21.0625 52.792969 C 20.628906 52.792969 20.191406 52.683594 19.761719 52.496094 C 19.335938 52.308594 18.921875 52.054688 18.535156 51.757812 C 18.34375 51.609375 18.148438 51.457031 17.96875 51.289062 C 17.78125 51.125 17.597656 50.953125 17.425781 50.777344 C 17.394531 50.746094 17.339844 50.738281 17.296875 50.765625 C 17.25 50.796875 17.238281 50.859375 17.269531 50.90625 C 17.410156 51.121094 17.566406 51.320312 17.722656 51.519531 C 17.878906 51.71875 18.050781 51.914062 18.226562 52.101562 C 18.582031 52.476562 18.980469 52.824219 19.441406 53.109375 C 19.898438 53.394531 20.421875 53.613281 20.996094 53.691406 C 21.566406 53.769531 22.167969 53.695312 22.710938 53.507812 C 23.253906 53.316406 23.742188 53.023438 24.183594 52.6875 C 24.621094 52.351562 25.007812 51.972656 25.363281 51.570312 C 25.71875 51.171875 26.042969 50.75 26.347656 50.324219 C 26.644531 49.890625 26.929688 49.453125 27.1875 49.007812 C 27.449219 48.5625 27.695312 48.101562 27.929688 47.644531 C 28.160156 47.183594 28.382812 46.71875 28.59375 46.253906 C 28.671875 46.085938 28.742188 45.917969 28.820312 45.75 C 29.246094 45.898438 29.667969 46.042969 30.09375 46.191406 C 31.03125 46.511719 31.960938 46.84375 32.878906 47.203125 C 33.789062 47.558594 34.691406 47.949219 35.546875 48.40625 C 36.09375 48.703125 36.632812 49.03125 37.121094 49.40625 C 37.355469 50.183594 37.59375 50.957031 37.84375 51.726562 C 37.921875 51.964844 38.011719 52.203125 38.097656 52.449219 C 38.1875 52.6875 38.285156 52.929688 38.40625 53.171875 C 38.441406 53.238281 38.472656 53.296875 38.511719 53.359375 C 38.550781 53.425781 38.59375 53.488281 38.664062 53.566406 C 38.703125 53.605469 38.75 53.644531 38.839844 53.691406 C 38.878906 53.710938 38.945312 53.730469 39.007812 53.722656 C 39.074219 53.722656 39.152344 53.703125 39.203125 53.671875 C 39.3125 53.605469 39.351562 53.542969 39.382812 53.488281 C 39.414062 53.4375 39.433594 53.394531 39.449219 53.355469 C 39.503906 53.191406 39.53125 53.058594 39.550781 52.921875 C 39.570312 52.785156 39.582031 52.65625 39.597656 52.519531 C 39.617188 52.242188 39.601562 51.964844 39.558594 51.695312 C 39.511719 51.421875 39.441406 51.152344 39.335938 50.894531 C 39.242188 50.636719 39.113281 50.390625 38.96875 50.15625 C 38.828125 49.925781 38.671875 49.703125 38.503906 49.492188 C 38.21875 49.136719 37.902344 48.8125 37.574219 48.507812 C 37.347656 47.585938 37.148438 46.65625 36.953125 45.71875 C 36.929688 45.589844 36.902344 45.460938 36.875 45.332031 C 36.921875 45.332031 36.972656 45.332031 37.019531 45.332031 C 38.046875 45.304688 39.074219 45.214844 40.085938 45.058594 C 41.101562 44.898438 42.109375 44.664062 43.085938 44.335938 C 44.058594 44.011719 45.003906 43.59375 45.886719 43.070312 C 46.773438 42.554688 47.59375 41.9375 48.324219 41.230469 C 48.355469 41.203125 48.363281 41.144531 48.332031 41.105469 Z M 31.824219 32.210938 C 31.824219 32.21875 31.832031 32.222656 31.835938 32.230469 C 31.835938 32.230469 31.835938 32.230469 31.835938 32.222656 C 31.816406 32.210938 31.816406 32.210938 31.824219 32.210938 Z M 31.648438 37.648438 C 31.792969 37.164062 31.921875 36.679688 32.058594 36.195312 C 32.191406 35.710938 32.320312 35.226562 32.453125 34.75 C 32.496094 34.59375 32.535156 34.4375 32.582031 34.285156 C 32.601562 34.335938 32.613281 34.386719 32.632812 34.445312 C 32.921875 35.390625 33.195312 36.351562 33.472656 37.3125 C 33.75 38.277344 34.027344 39.238281 34.3125 40.195312 C 34.453125 40.671875 34.601562 41.15625 34.746094 41.636719 L 35.183594 43.078125 L 35.449219 43.941406 C 34.019531 43.820312 32.59375 43.613281 31.171875 43.335938 C 30.746094 43.25 30.320312 43.167969 29.894531 43.078125 C 30.550781 41.28125 31.132812 39.472656 31.648438 37.648438 Z M 25.292969 43.863281 C 25.285156 43.863281 25.28125 43.863281 25.28125 43.863281 C 25.273438 43.863281 25.28125 43.863281 25.292969 43.863281 Z M 31.765625 45.027344 C 33.125 45.207031 34.5 45.324219 35.875 45.34375 L 36.0625 45.957031 L 36.597656 47.726562 C 36.449219 47.617188 36.300781 47.507812 36.152344 47.40625 C 34.757812 46.449219 33.277344 45.6875 31.765625 45.027344 Z M 39.09375 53.128906 C 39.09375 53.128906 39.085938 53.128906 39.09375 53.128906 C 39.09375 53.136719 39.09375 53.136719 39.09375 53.128906 Z M 38.640625 51.191406 C 38.832031 51.597656 38.929688 52.042969 38.925781 52.496094 C 38.925781 52.605469 38.910156 52.722656 38.90625 52.832031 C 38.816406 52.644531 38.730469 52.445312 38.652344 52.242188 C 38.5625 52.015625 38.484375 51.777344 38.40625 51.546875 C 38.328125 51.3125 38.257812 51.074219 38.1875 50.835938 C 38.128906 50.648438 38.078125 50.453125 38.027344 50.265625 C 38.125 50.375 38.214844 50.484375 38.296875 50.601562 C 38.425781 50.789062 38.542969 50.984375 38.640625 51.191406 Z M 38.640625 51.191406 " fill-opacity="1" fill-rule="nonzero"/></g></svg>