<svg xmlns="http://www.w3.org/2000/svg" xmlns:xlink="http://www.w3.org/1999/xlink" width="600" zoomAndPan="magnify" viewBox="0 0 450 110" height="190" preserveAspectRatio="xMidYMid meet" version="1.0"><defs><g/></defs><g fill="#ff2c55" fill-opacity="1"><g transform="translate(10.174565, 83.542596)"><g><path d="M 22.421875 -38.625 L 38.015625 0 L 28.5625 0 L 25.703125 -7.71875 L 11 -7.71875 L 8.140625 0 L -1.3125 0 L 14.28125 -38.625 Z M 22.703125 -15.453125 L 18.390625 -26.6875 L 18.296875 -26.6875 L 14 -15.453125 Z M 22.703125 -15.453125 "/></g></g></g><g fill="#ff2c55" fill-opacity="1"><g transform="translate(46.876558, 83.542596)"><g><path d="M 37.96875 0 L 25.84375 0 L 11.609375 -16.390625 L 11.609375 0 L 2.8125 0 L 2.8125 -38.625 L 11.609375 -38.625 L 11.609375 -22.84375 L 24.859375 -38.625 L 35.53125 -38.625 L 19.984375 -20.3125 Z M 37.96875 0 "/></g></g></g><g fill="#ff2c55" fill-opacity="1"><g transform="translate(81.471857, 83.542596)"><g><path d="M 0.375 -30.890625 L 0.375 -38.625 L 27.53125 -38.625 L 27.53125 -30.890625 L 18.34375 -30.890625 L 18.34375 0 L 9.546875 0 L 9.546875 -30.890625 Z M 0.375 -30.890625 "/></g></g></g><g fill="#ff2c55" fill-opacity="1"><g transform="translate(109.372862, 83.542596)"><g><path d="M 8.796875 -50.375 C 9.640625 -51.21875 10.65625 -51.640625 11.84375 -51.640625 C 13.03125 -51.640625 14.046875 -51.21875 14.890625 -50.375 C 15.734375 -49.53125 16.15625 -48.515625 16.15625 -47.328125 C 16.15625 -46.140625 15.734375 -45.125 14.890625 -44.28125 C 14.046875 -43.4375 13.03125 -43.015625 11.84375 -43.015625 C 10.65625 -43.015625 9.640625 -43.4375 8.796875 -44.28125 C 7.953125 -45.125 7.53125 -46.140625 7.53125 -47.328125 C 7.53125 -48.515625 7.953125 -49.53125 8.796875 -50.375 Z M 19.890625 -50.375 C 20.734375 -51.21875 21.75 -51.640625 22.9375 -51.640625 C 24.125 -51.640625 25.140625 -51.21875 25.984375 -50.375 C 26.828125 -49.53125 27.25 -48.515625 27.25 -47.328125 C 27.25 -46.140625 26.828125 -45.125 25.984375 -44.28125 C 25.140625 -43.4375 24.125 -43.015625 22.9375 -43.015625 C 21.75 -43.015625 20.734375 -43.4375 19.890625 -44.28125 C 19.046875 -45.125 18.625 -46.140625 18.625 -47.328125 C 18.625 -48.515625 19.046875 -49.53125 19.890625 -50.375 Z M 23.6875 -38.625 L 23.6875 -16.296875 C 23.6875 -13.171875 23.191406 -11 22.203125 -9.78125 C 21.222656 -8.5625 19.625 -7.953125 17.40625 -7.953125 C 15.195312 -7.953125 13.597656 -8.5625 12.609375 -9.78125 C 11.628906 -11 11.140625 -13.171875 11.140625 -16.296875 L 11.140625 -38.625 L 2.34375 -38.625 L 2.34375 -13.71875 C 2.34375 -8.96875 3.617188 -5.375 6.171875 -2.9375 C 8.734375 -0.507812 12.476562 0.703125 17.40625 0.703125 C 22.34375 0.703125 26.085938 -0.507812 28.640625 -2.9375 C 31.203125 -5.375 32.484375 -8.96875 32.484375 -13.71875 L 32.484375 -38.625 Z M 23.6875 -38.625 "/></g></g></g><g fill="#ff2c55" fill-opacity="1"><g transform="translate(144.202305, 83.542596)"><g><path d="M 24.90625 -38.625 L 24.90625 -30.890625 L 11.609375 -30.890625 L 11.609375 -23.21875 L 24.34375 -23.21875 L 24.34375 -15.5 L 11.609375 -15.5 L 11.609375 -7.71875 L 24.90625 -7.71875 L 24.90625 0 L 2.8125 0 L 2.8125 -38.625 Z M 24.90625 -38.625 "/></g></g></g><g fill="#ff2c55" fill-opacity="1"><g transform="translate(171.354293, 83.542596)"><g><path d="M 11.609375 -38.625 L 11.609375 -7.71875 L 24.90625 -7.71875 L 24.90625 0 L 2.8125 0 L 2.8125 -38.625 Z M 11.609375 -38.625 "/></g></g></g><g fill="#ff2c55" fill-opacity="1"><g transform="translate(197.804086, 83.542596)"><g/></g></g><g fill="#ff2c55" fill-opacity="1"><g transform="translate(210.58424, 83.542596)"><g><path d="M 8.796875 -50.375 C 9.640625 -51.21875 10.65625 -51.640625 11.84375 -51.640625 C 13.03125 -51.640625 14.046875 -51.21875 14.890625 -50.375 C 15.734375 -49.53125 16.15625 -48.515625 16.15625 -47.328125 C 16.15625 -46.140625 15.734375 -45.125 14.890625 -44.28125 C 14.046875 -43.4375 13.03125 -43.015625 11.84375 -43.015625 C 10.65625 -43.015625 9.640625 -43.4375 8.796875 -44.28125 C 7.953125 -45.125 7.53125 -46.140625 7.53125 -47.328125 C 7.53125 -48.515625 7.953125 -49.53125 8.796875 -50.375 Z M 19.890625 -50.375 C 20.734375 -51.21875 21.75 -51.640625 22.9375 -51.640625 C 24.125 -51.640625 25.140625 -51.21875 25.984375 -50.375 C 26.828125 -49.53125 27.25 -48.515625 27.25 -47.328125 C 27.25 -46.140625 26.828125 -45.125 25.984375 -44.28125 C 25.140625 -43.4375 24.125 -43.015625 22.9375 -43.015625 C 21.75 -43.015625 20.734375 -43.4375 19.890625 -44.28125 C 19.046875 -45.125 18.625 -46.140625 18.625 -47.328125 C 18.625 -48.515625 19.046875 -49.53125 19.890625 -50.375 Z M 23.6875 -38.625 L 23.6875 -16.296875 C 23.6875 -13.171875 23.191406 -11 22.203125 -9.78125 C 21.222656 -8.5625 19.625 -7.953125 17.40625 -7.953125 C 15.195312 -7.953125 13.597656 -8.5625 12.609375 -9.78125 C 11.628906 -11 11.140625 -13.171875 11.140625 -16.296875 L 11.140625 -38.625 L 2.34375 -38.625 L 2.34375 -13.71875 C 2.34375 -8.96875 3.617188 -5.375 6.171875 -2.9375 C 8.734375 -0.507812 12.476562 0.703125 17.40625 0.703125 C 22.34375 0.703125 26.085938 -0.507812 28.640625 -2.9375 C 31.203125 -5.375 32.484375 -8.96875 32.484375 -13.71875 L 32.484375 -38.625 Z M 23.6875 -38.625 "/></g></g></g><g fill="#ff2c55" fill-opacity="1"><g transform="translate(245.413672, 83.542596)"><g><path d="M 2.8125 -38.625 L 16.625 -38.625 C 20.332031 -38.625 23.359375 -37.628906 25.703125 -35.640625 C 28.046875 -33.660156 29.21875 -30.832031 29.21875 -27.15625 C 29.21875 -24.3125 28.503906 -21.929688 27.078125 -20.015625 C 25.660156 -18.097656 23.734375 -16.75 21.296875 -15.96875 L 34.59375 0 L 23.40625 0 L 11.609375 -15.265625 L 11.609375 0 L 2.8125 0 Z M 11.609375 -21.484375 L 12.640625 -21.484375 C 13.453125 -21.484375 14.140625 -21.5 14.703125 -21.53125 C 15.265625 -21.5625 15.898438 -21.671875 16.609375 -21.859375 C 17.328125 -22.046875 17.90625 -22.3125 18.34375 -22.65625 C 18.78125 -23 19.15625 -23.5 19.46875 -24.15625 C 19.78125 -24.8125 19.9375 -25.609375 19.9375 -26.546875 C 19.9375 -27.484375 19.78125 -28.273438 19.46875 -28.921875 C 19.15625 -29.578125 18.78125 -30.078125 18.34375 -30.421875 C 17.90625 -30.765625 17.328125 -31.03125 16.609375 -31.21875 C 15.898438 -31.40625 15.265625 -31.515625 14.703125 -31.546875 C 14.140625 -31.578125 13.453125 -31.59375 12.640625 -31.59375 L 11.609375 -31.59375 Z M 11.609375 -21.484375 "/></g></g></g><g fill="#ff2c55" fill-opacity="1"><g transform="translate(278.932315, 83.542596)"><g><path d="M 8.796875 -50.375 C 9.640625 -51.21875 10.65625 -51.640625 11.84375 -51.640625 C 13.03125 -51.640625 14.046875 -51.21875 14.890625 -50.375 C 15.734375 -49.53125 16.15625 -48.515625 16.15625 -47.328125 C 16.15625 -46.140625 15.734375 -45.125 14.890625 -44.28125 C 14.046875 -43.4375 13.03125 -43.015625 11.84375 -43.015625 C 10.65625 -43.015625 9.640625 -43.4375 8.796875 -44.28125 C 7.953125 -45.125 7.53125 -46.140625 7.53125 -47.328125 C 7.53125 -48.515625 7.953125 -49.53125 8.796875 -50.375 Z M 19.890625 -50.375 C 20.734375 -51.21875 21.75 -51.640625 22.9375 -51.640625 C 24.125 -51.640625 25.140625 -51.21875 25.984375 -50.375 C 26.828125 -49.53125 27.25 -48.515625 27.25 -47.328125 C 27.25 -46.140625 26.828125 -45.125 25.984375 -44.28125 C 25.140625 -43.4375 24.125 -43.015625 22.9375 -43.015625 C 21.75 -43.015625 20.734375 -43.4375 19.890625 -44.28125 C 19.046875 -45.125 18.625 -46.140625 18.625 -47.328125 C 18.625 -48.515625 19.046875 -49.53125 19.890625 -50.375 Z M 23.6875 -38.625 L 23.6875 -16.296875 C 23.6875 -13.171875 23.191406 -11 22.203125 -9.78125 C 21.222656 -8.5625 19.625 -7.953125 17.40625 -7.953125 C 15.195312 -7.953125 13.597656 -8.5625 12.609375 -9.78125 C 11.628906 -11 11.140625 -13.171875 11.140625 -16.296875 L 11.140625 -38.625 L 2.34375 -38.625 L 2.34375 -13.71875 C 2.34375 -8.96875 3.617188 -5.375 6.171875 -2.9375 C 8.734375 -0.507812 12.476562 0.703125 17.40625 0.703125 C 22.34375 0.703125 26.085938 -0.507812 28.640625 -2.9375 C 31.203125 -5.375 32.484375 -8.96875 32.484375 -13.71875 L 32.484375 -38.625 Z M 23.6875 -38.625 "/></g></g></g><g fill="#ff2c55" fill-opacity="1"><g transform="translate(313.761768, 83.542596)"><g><path d="M 11.609375 -23.96875 L 11.609375 0 L 2.8125 0 L 2.8125 -38.625 L 11.609375 -38.625 L 26.96875 -14.65625 L 27.0625 -14.65625 L 27.0625 -38.625 L 35.859375 -38.625 L 35.859375 0 L 27.0625 0 L 11.703125 -23.96875 Z M 11.609375 -23.96875 "/></g></g></g><g fill="#ff2c55" fill-opacity="1"><g transform="translate(352.429944, 83.542596)"><g><path d="M 11.609375 -38.625 L 11.609375 -7.71875 L 24.90625 -7.71875 L 24.90625 0 L 2.8125 0 L 2.8125 -38.625 Z M 11.609375 -38.625 "/></g></g></g><g fill="#ff2c55" fill-opacity="1"><g transform="translate(378.879726, 83.542596)"><g><path d="M 24.90625 -38.625 L 24.90625 -30.890625 L 11.609375 -30.890625 L 11.609375 -23.21875 L 24.34375 -23.21875 L 24.34375 -15.5 L 11.609375 -15.5 L 11.609375 -7.71875 L 24.90625 -7.71875 L 24.90625 0 L 2.8125 0 L 2.8125 -38.625 Z M 24.90625 -38.625 "/></g></g></g><g fill="#ff2c55" fill-opacity="1"><g transform="translate(406.031735, 83.542596)"><g><path d="M 2.8125 -38.625 L 16.625 -38.625 C 20.332031 -38.625 23.359375 -37.628906 25.703125 -35.640625 C 28.046875 -33.660156 29.21875 -30.832031 29.21875 -27.15625 C 29.21875 -24.3125 28.503906 -21.929688 27.078125 -20.015625 C 25.660156 -18.097656 23.734375 -16.75 21.296875 -15.96875 L 34.59375 0 L 23.40625 0 L 11.609375 -15.265625 L 11.609375 0 L 2.8125 0 Z M 11.609375 -21.484375 L 12.640625 -21.484375 C 13.453125 -21.484375 14.140625 -21.5 14.703125 -21.53125 C 15.265625 -21.5625 15.898438 -21.671875 16.609375 -21.859375 C 17.328125 -22.046875 17.90625 -22.3125 18.34375 -22.65625 C 18.78125 -23 19.15625 -23.5 19.46875 -24.15625 C 19.78125 -24.8125 19.9375 -25.609375 19.9375 -26.546875 C 19.9375 -27.484375 19.78125 -28.273438 19.46875 -28.921875 C 19.15625 -29.578125 18.78125 -30.078125 18.34375 -30.421875 C 17.90625 -30.765625 17.328125 -31.03125 16.609375 -31.21875 C 15.898438 -31.40625 15.265625 -31.515625 14.703125 -31.546875 C 14.140625 -31.578125 13.453125 -31.59375 12.640625 -31.59375 L 11.609375 -31.59375 Z M 11.609375 -21.484375 "/></g></g></g></svg>