<svg xmlns="http://www.w3.org/2000/svg" xmlns:xlink="http://www.w3.org/1999/xlink" width="600" zoomAndPan="magnify" viewBox="0 0 450 142.499996" height="190" preserveAspectRatio="xMidYMid meet" version="1.0"><defs><g/><clipPath id="c040184f4a"><path d="M 0.785156 0 L 449.210938 0 L 449.210938 142 L 0.785156 142 Z M 0.785156 0 " clip-rule="nonzero"/></clipPath><clipPath id="29de21452b"><path d="M 50.820312 5.335938 L 399.671875 5.335938 L 399.671875 136.667969 L 50.820312 136.667969 Z M 50.820312 5.335938 " clip-rule="nonzero"/></clipPath><clipPath id="cbf71b6db1"><path d="M 61.285156 5.335938 L 388.714844 5.335938 C 391.492188 5.335938 394.152344 6.4375 396.117188 8.398438 C 398.078125 10.363281 399.179688 13.023438 399.179688 15.796875 L 399.179688 126.203125 C 399.179688 128.980469 398.078125 131.640625 396.117188 133.601562 C 394.152344 135.566406 391.492188 136.667969 388.714844 136.667969 L 61.285156 136.667969 C 58.507812 136.667969 55.847656 135.566406 53.882812 133.601562 C 51.921875 131.640625 50.820312 128.980469 50.820312 126.203125 L 50.820312 15.796875 C 50.820312 13.023438 51.921875 10.363281 53.882812 8.398438 C 55.847656 6.4375 58.507812 5.335938 61.285156 5.335938 Z M 61.285156 5.335938 " clip-rule="nonzero"/></clipPath><clipPath id="573d0c52f2"><path d="M 50.820312 5.335938 L 181.980469 5.335938 L 181.980469 136.496094 L 50.820312 136.496094 Z M 50.820312 5.335938 " clip-rule="nonzero"/></clipPath></defs><g clip-path="url(#c040184f4a)"><path fill="#e74c3c" d="M 0.785156 0 L 449.214844 0 L 449.214844 142 L 0.785156 142 Z M 0.785156 0 " fill-opacity="1" fill-rule="nonzero"/></g><g clip-path="url(#29de21452b)"><g clip-path="url(#cbf71b6db1)"><path fill="#e74c3c" d="M 50.820312 5.335938 L 399.160156 5.335938 L 399.160156 136.667969 L 50.820312 136.667969 Z M 50.820312 5.335938 " fill-opacity="1" fill-rule="nonzero"/></g></g><g clip-path="url(#573d0c52f2)"><path fill="#e74c3c" d="M 63.210938 5.335938 L 169.589844 5.335938 C 170.402344 5.335938 171.207031 5.414062 172.007812 5.574219 C 172.804688 5.730469 173.578125 5.964844 174.332031 6.277344 C 175.082031 6.589844 175.796875 6.972656 176.472656 7.421875 C 177.148438 7.875 177.777344 8.390625 178.351562 8.964844 C 178.925781 9.539062 179.441406 10.164062 179.890625 10.84375 C 180.34375 11.519531 180.726562 12.234375 181.039062 12.984375 C 181.347656 13.734375 181.585938 14.511719 181.742188 15.308594 C 181.902344 16.105469 181.980469 16.914062 181.980469 17.726562 L 181.980469 124.101562 C 181.980469 124.917969 181.902344 125.722656 181.742188 126.519531 C 181.585938 127.320312 181.347656 128.09375 181.039062 128.84375 C 180.726562 129.597656 180.34375 130.3125 179.890625 130.988281 C 179.441406 131.664062 178.925781 132.289062 178.351562 132.867188 C 177.777344 133.441406 177.148438 133.953125 176.472656 134.40625 C 175.796875 134.859375 175.082031 135.242188 174.332031 135.550781 C 173.578125 135.863281 172.804688 136.097656 172.007812 136.257812 C 171.207031 136.417969 170.402344 136.496094 169.589844 136.496094 L 63.210938 136.496094 C 62.398438 136.496094 61.59375 136.417969 60.792969 136.257812 C 59.996094 136.097656 59.222656 135.863281 58.46875 135.550781 C 57.71875 135.242188 57.003906 134.859375 56.328125 134.40625 C 55.652344 133.953125 55.023438 133.441406 54.449219 132.867188 C 53.875 132.289062 53.359375 131.664062 52.910156 130.988281 C 52.457031 130.3125 52.074219 129.597656 51.761719 128.84375 C 51.453125 128.09375 51.21875 127.320312 51.058594 126.519531 C 50.898438 125.722656 50.820312 124.917969 50.820312 124.101562 L 50.820312 17.726562 C 50.820312 16.914062 50.898438 16.105469 51.058594 15.308594 C 51.21875 14.511719 51.453125 13.734375 51.761719 12.984375 C 52.074219 12.234375 52.457031 11.519531 52.910156 10.84375 C 53.359375 10.164062 53.875 9.539062 54.449219 8.964844 C 55.023438 8.390625 55.652344 7.875 56.328125 7.421875 C 57.003906 6.972656 57.71875 6.589844 58.46875 6.277344 C 59.222656 5.964844 59.996094 5.730469 60.792969 5.574219 C 61.59375 5.414062 62.398438 5.335938 63.210938 5.335938 Z M 63.210938 5.335938 " fill-opacity="1" fill-rule="nonzero"/></g><path fill="#ffffff" d="M 73.582031 36.992188 L 87.09375 36.992188 L 94.511719 83.335938 C 94.550781 83.601562 94.640625 83.851562 94.769531 84.082031 C 94.902344 84.316406 95.070312 84.523438 95.273438 84.695312 C 95.480469 84.871094 95.707031 85.003906 95.960938 85.097656 C 96.210938 85.191406 96.472656 85.238281 96.738281 85.238281 L 143.054688 85.238281 C 143.3125 85.238281 143.566406 85.195312 143.8125 85.109375 C 144.058594 85.023438 144.285156 84.894531 144.488281 84.730469 C 144.6875 84.566406 144.859375 84.371094 144.992188 84.148438 C 145.128906 83.925781 145.222656 83.683594 145.273438 83.429688 L 152.988281 44.832031 C 153.023438 44.667969 153.039062 44.5 153.035156 44.335938 C 153.03125 44.167969 153.011719 44 152.96875 43.839844 C 152.929688 43.675781 152.871094 43.519531 152.796875 43.371094 C 152.722656 43.21875 152.632812 43.078125 152.527344 42.949219 C 152.417969 42.820312 152.300781 42.703125 152.167969 42.597656 C 152.035156 42.496094 151.894531 42.410156 151.742188 42.335938 C 151.59375 42.265625 151.433594 42.210938 151.269531 42.171875 C 151.105469 42.136719 150.941406 42.117188 150.773438 42.117188 L 104.460938 42.117188 C 104.160156 42.117188 103.871094 42.175781 103.59375 42.289062 C 103.316406 42.40625 103.074219 42.570312 102.859375 42.78125 C 102.648438 42.992188 102.484375 43.238281 102.371094 43.515625 C 102.257812 43.792969 102.199219 44.078125 102.199219 44.378906 C 102.199219 44.679688 102.257812 44.96875 102.371094 45.246094 C 102.484375 45.523438 102.648438 45.765625 102.859375 45.980469 C 103.074219 46.191406 103.316406 46.355469 103.59375 46.46875 C 103.871094 46.582031 104.160156 46.640625 104.460938 46.640625 L 148.015625 46.640625 L 141.199219 80.714844 L 98.683594 80.714844 L 91.253906 34.375 C 91.210938 34.109375 91.125 33.859375 90.992188 33.625 C 90.863281 33.390625 90.695312 33.1875 90.488281 33.011719 C 90.285156 32.839844 90.058594 32.703125 89.804688 32.613281 C 89.554688 32.519531 89.292969 32.472656 89.023438 32.472656 L 73.582031 32.472656 C 73.285156 32.472656 72.996094 32.527344 72.71875 32.644531 C 72.441406 32.757812 72.195312 32.921875 71.984375 33.132812 C 71.773438 33.34375 71.609375 33.589844 71.492188 33.867188 C 71.378906 34.144531 71.320312 34.433594 71.320312 34.734375 C 71.320312 35.03125 71.378906 35.320312 71.492188 35.597656 C 71.609375 35.875 71.773438 36.121094 71.984375 36.332031 C 72.195312 36.542969 72.441406 36.707031 72.71875 36.820312 C 72.996094 36.9375 73.285156 36.992188 73.582031 36.992188 Z M 73.582031 36.992188 " fill-opacity="1" fill-rule="evenodd"/><path fill="#ffffff" d="M 104.945312 94.886719 C 105.269531 94.886719 105.59375 94.917969 105.914062 94.980469 C 106.234375 95.046875 106.546875 95.140625 106.847656 95.265625 C 107.148438 95.390625 107.4375 95.542969 107.707031 95.722656 C 107.980469 95.90625 108.230469 96.113281 108.460938 96.34375 C 108.691406 96.574219 108.898438 96.824219 109.082031 97.097656 C 109.261719 97.367188 109.414062 97.65625 109.539062 97.957031 C 109.664062 98.257812 109.761719 98.570312 109.824219 98.890625 C 109.886719 99.210938 109.917969 99.535156 109.917969 99.859375 C 109.917969 100.1875 109.886719 100.511719 109.824219 100.832031 C 109.761719 101.152344 109.664062 101.464844 109.539062 101.765625 C 109.414062 102.066406 109.261719 102.351562 109.082031 102.625 C 108.898438 102.898438 108.691406 103.148438 108.460938 103.378906 C 108.230469 103.609375 107.980469 103.816406 107.707031 103.996094 C 107.4375 104.179688 107.148438 104.332031 106.847656 104.457031 C 106.546875 104.582031 106.234375 104.675781 105.914062 104.742188 C 105.59375 104.804688 105.269531 104.835938 104.945312 104.835938 C 104.617188 104.835938 104.292969 104.804688 103.972656 104.742188 C 103.652344 104.675781 103.34375 104.582031 103.039062 104.457031 C 102.738281 104.332031 102.453125 104.179688 102.179688 103.996094 C 101.910156 103.816406 101.65625 103.609375 101.425781 103.378906 C 101.195312 103.148438 100.988281 102.898438 100.808594 102.625 C 100.625 102.351562 100.472656 102.066406 100.347656 101.765625 C 100.222656 101.464844 100.128906 101.152344 100.066406 100.832031 C 100 100.511719 99.96875 100.1875 99.96875 99.859375 C 99.96875 99.535156 100 99.210938 100.066406 98.890625 C 100.128906 98.570312 100.222656 98.257812 100.347656 97.957031 C 100.472656 97.65625 100.625 97.367188 100.808594 97.097656 C 100.988281 96.824219 101.195312 96.574219 101.425781 96.34375 C 101.65625 96.113281 101.910156 95.90625 102.179688 95.722656 C 102.453125 95.542969 102.738281 95.390625 103.039062 95.265625 C 103.34375 95.140625 103.652344 95.046875 103.972656 94.980469 C 104.292969 94.917969 104.617188 94.886719 104.945312 94.886719 Z M 104.945312 90.363281 C 104.320312 90.363281 103.703125 90.425781 103.089844 90.546875 C 102.480469 90.667969 101.886719 90.847656 101.308594 91.085938 C 100.734375 91.324219 100.1875 91.617188 99.667969 91.964844 C 99.148438 92.308594 98.667969 92.703125 98.226562 93.144531 C 97.789062 93.585938 97.394531 94.066406 97.046875 94.585938 C 96.699219 95.101562 96.40625 95.648438 96.167969 96.226562 C 95.929688 96.800781 95.75 97.394531 95.628906 98.007812 C 95.507812 98.621094 95.445312 99.238281 95.445312 99.859375 C 95.445312 100.484375 95.507812 101.101562 95.628906 101.714844 C 95.75 102.324219 95.929688 102.917969 96.167969 103.496094 C 96.40625 104.070312 96.699219 104.617188 97.046875 105.136719 C 97.394531 105.65625 97.789062 106.136719 98.226562 106.578125 C 98.667969 107.019531 99.148438 107.410156 99.667969 107.757812 C 100.1875 108.105469 100.734375 108.398438 101.308594 108.636719 C 101.886719 108.875 102.480469 109.054688 103.089844 109.175781 C 103.703125 109.296875 104.320312 109.359375 104.945312 109.359375 C 105.566406 109.359375 106.1875 109.296875 106.796875 109.175781 C 107.410156 109.054688 108.003906 108.875 108.578125 108.636719 C 109.15625 108.398438 109.703125 108.105469 110.222656 107.757812 C 110.738281 107.410156 111.21875 107.019531 111.660156 106.578125 C 112.101562 106.136719 112.496094 105.65625 112.839844 105.136719 C 113.1875 104.617188 113.480469 104.070312 113.71875 103.496094 C 113.957031 102.917969 114.136719 102.324219 114.257812 101.714844 C 114.382812 101.101562 114.441406 100.484375 114.441406 99.859375 C 114.441406 99.238281 114.382812 98.621094 114.257812 98.007812 C 114.136719 97.394531 113.957031 96.800781 113.71875 96.226562 C 113.480469 95.648438 113.1875 95.101562 112.839844 94.585938 C 112.496094 94.066406 112.101562 93.585938 111.660156 93.144531 C 111.21875 92.703125 110.738281 92.308594 110.222656 91.964844 C 109.703125 91.617188 109.15625 91.324219 108.578125 91.085938 C 108.003906 90.847656 107.410156 90.667969 106.796875 90.546875 C 106.183594 90.425781 105.566406 90.363281 104.945312 90.363281 Z M 104.945312 90.363281 " fill-opacity="1" fill-rule="evenodd"/><path fill="#ffffff" d="M 133.890625 94.886719 C 134.21875 94.886719 134.539062 94.917969 134.859375 94.980469 C 135.179688 95.046875 135.492188 95.140625 135.792969 95.265625 C 136.097656 95.390625 136.382812 95.542969 136.652344 95.722656 C 136.925781 95.90625 137.175781 96.113281 137.40625 96.34375 C 137.640625 96.574219 137.84375 96.824219 138.027344 97.097656 C 138.207031 97.367188 138.363281 97.65625 138.488281 97.957031 C 138.613281 98.257812 138.707031 98.570312 138.769531 98.890625 C 138.832031 99.210938 138.867188 99.535156 138.867188 99.859375 C 138.867188 100.1875 138.832031 100.511719 138.769531 100.832031 C 138.707031 101.152344 138.613281 101.464844 138.488281 101.765625 C 138.363281 102.066406 138.207031 102.351562 138.027344 102.625 C 137.84375 102.898438 137.640625 103.148438 137.40625 103.378906 C 137.175781 103.609375 136.925781 103.816406 136.652344 103.996094 C 136.382812 104.179688 136.097656 104.332031 135.792969 104.457031 C 135.492188 104.582031 135.179688 104.675781 134.859375 104.742188 C 134.539062 104.804688 134.21875 104.835938 133.890625 104.835938 C 133.5625 104.835938 133.238281 104.804688 132.917969 104.742188 C 132.597656 104.675781 132.289062 104.582031 131.984375 104.457031 C 131.683594 104.332031 131.398438 104.179688 131.125 103.996094 C 130.855469 103.816406 130.601562 103.609375 130.371094 103.378906 C 130.140625 103.148438 129.933594 102.898438 129.753906 102.625 C 129.570312 102.351562 129.417969 102.066406 129.292969 101.765625 C 129.167969 101.464844 129.074219 101.152344 129.011719 100.832031 C 128.945312 100.511719 128.914062 100.1875 128.914062 99.859375 C 128.914062 99.535156 128.945312 99.210938 129.011719 98.890625 C 129.074219 98.570312 129.167969 98.257812 129.292969 97.957031 C 129.417969 97.65625 129.570312 97.367188 129.753906 97.097656 C 129.933594 96.824219 130.140625 96.574219 130.371094 96.34375 C 130.601562 96.113281 130.855469 95.90625 131.125 95.722656 C 131.398438 95.542969 131.683594 95.390625 131.984375 95.265625 C 132.289062 95.140625 132.597656 95.046875 132.917969 94.980469 C 133.238281 94.917969 133.5625 94.886719 133.890625 94.886719 Z M 133.890625 90.363281 C 133.265625 90.363281 132.648438 90.425781 132.039062 90.546875 C 131.425781 90.667969 130.832031 90.847656 130.253906 91.085938 C 129.679688 91.324219 129.132812 91.617188 128.613281 91.964844 C 128.09375 92.308594 127.613281 92.703125 127.175781 93.144531 C 126.734375 93.585938 126.339844 94.066406 125.992188 94.585938 C 125.644531 95.101562 125.355469 95.648438 125.117188 96.226562 C 124.875 96.800781 124.695312 97.394531 124.574219 98.007812 C 124.453125 98.621094 124.390625 99.238281 124.390625 99.859375 C 124.390625 100.484375 124.453125 101.101562 124.574219 101.714844 C 124.695312 102.324219 124.875 102.917969 125.117188 103.496094 C 125.355469 104.070312 125.644531 104.617188 125.992188 105.136719 C 126.339844 105.65625 126.734375 106.136719 127.175781 106.578125 C 127.613281 107.019531 128.09375 107.410156 128.613281 107.757812 C 129.132812 108.105469 129.679688 108.398438 130.253906 108.636719 C 130.832031 108.875 131.425781 109.054688 132.039062 109.175781 C 132.648438 109.296875 133.265625 109.359375 133.890625 109.359375 C 134.515625 109.359375 135.132812 109.296875 135.742188 109.175781 C 136.355469 109.054688 136.949219 108.875 137.523438 108.636719 C 138.101562 108.398438 138.648438 108.105469 139.167969 107.757812 C 139.683594 107.410156 140.164062 107.019531 140.605469 106.578125 C 141.046875 106.136719 141.441406 105.65625 141.789062 105.136719 C 142.132812 104.617188 142.425781 104.070312 142.664062 103.496094 C 142.902344 102.917969 143.082031 102.324219 143.207031 101.714844 C 143.328125 101.101562 143.386719 100.484375 143.386719 99.859375 C 143.386719 99.238281 143.328125 98.621094 143.207031 98.007812 C 143.082031 97.394531 142.902344 96.800781 142.664062 96.226562 C 142.425781 95.648438 142.132812 95.101562 141.789062 94.585938 C 141.441406 94.066406 141.046875 93.585938 140.605469 93.144531 C 140.164062 92.703125 139.683594 92.308594 139.167969 91.964844 C 138.648438 91.617188 138.101562 91.324219 137.523438 91.085938 C 136.949219 90.847656 136.355469 90.667969 135.742188 90.546875 C 135.132812 90.425781 134.515625 90.363281 133.890625 90.363281 Z M 133.890625 90.363281 " fill-opacity="1" fill-rule="evenodd"/><g fill="#ffffff" fill-opacity="1"><g transform="translate(170.689811, 70.038587)"><g><path d="M 25.5625 -44.03125 L 43.34375 0 L 32.5625 0 L 29.296875 -8.8125 L 12.546875 -8.8125 L 9.28125 0 L -1.5 0 L 16.28125 -44.03125 Z M 25.890625 -17.609375 L 20.96875 -30.421875 L 20.875 -30.421875 L 15.953125 -17.609375 Z M 25.890625 -17.609375 "/></g></g></g><g fill="#ffffff" fill-opacity="1"><g transform="translate(212.523968, 70.038587)"><g><path d="M 43.28125 0 L 29.46875 0 L 13.234375 -18.6875 L 13.234375 0 L 3.203125 0 L 3.203125 -44.03125 L 13.234375 -44.03125 L 13.234375 -26.046875 L 28.34375 -44.03125 L 40.515625 -44.03125 L 22.796875 -23.171875 Z M 43.28125 0 "/></g></g></g><g fill="#ffffff" fill-opacity="1"><g transform="translate(251.956368, 70.038587)"><g><path d="M 0.421875 -35.234375 L 0.421875 -44.03125 L 31.390625 -44.03125 L 31.390625 -35.234375 L 20.921875 -35.234375 L 20.921875 0 L 10.890625 0 L 10.890625 -35.234375 Z M 0.421875 -35.234375 "/></g></g></g><g fill="#ffffff" fill-opacity="1"><g transform="translate(283.758868, 70.038587)"><g><path d="M 10.03125 -57.421875 C 10.988281 -58.390625 12.144531 -58.875 13.5 -58.875 C 14.851562 -58.875 16.007812 -58.390625 16.96875 -57.421875 C 17.9375 -56.460938 18.421875 -55.304688 18.421875 -53.953125 C 18.421875 -52.609375 17.9375 -51.453125 16.96875 -50.484375 C 16.007812 -49.523438 14.851562 -49.046875 13.5 -49.046875 C 12.144531 -49.046875 10.988281 -49.523438 10.03125 -50.484375 C 9.070312 -51.453125 8.59375 -52.609375 8.59375 -53.953125 C 8.59375 -55.304688 9.070312 -56.460938 10.03125 -57.421875 Z M 22.6875 -57.421875 C 23.644531 -58.390625 24.800781 -58.875 26.15625 -58.875 C 27.507812 -58.875 28.664062 -58.390625 29.625 -57.421875 C 30.582031 -56.460938 31.0625 -55.304688 31.0625 -53.953125 C 31.0625 -52.609375 30.582031 -51.453125 29.625 -50.484375 C 28.664062 -49.523438 27.507812 -49.046875 26.15625 -49.046875 C 24.800781 -49.046875 23.644531 -49.523438 22.6875 -50.484375 C 21.726562 -51.453125 21.25 -52.609375 21.25 -53.953125 C 21.25 -55.304688 21.726562 -56.460938 22.6875 -57.421875 Z M 27 -44.03125 L 27 -18.578125 C 27 -15.015625 26.4375 -12.539062 25.3125 -11.15625 C 24.195312 -9.769531 22.375 -9.078125 19.84375 -9.078125 C 17.320312 -9.078125 15.5 -9.769531 14.375 -11.15625 C 13.257812 -12.539062 12.703125 -15.015625 12.703125 -18.578125 L 12.703125 -44.03125 L 2.671875 -44.03125 L 2.671875 -15.640625 C 2.671875 -10.234375 4.128906 -6.140625 7.046875 -3.359375 C 9.960938 -0.585938 14.226562 0.796875 19.84375 0.796875 C 25.46875 0.796875 29.738281 -0.585938 32.65625 -3.359375 C 35.582031 -6.140625 37.046875 -10.234375 37.046875 -15.640625 L 37.046875 -44.03125 Z M 27 -44.03125 "/></g></g></g><g fill="#ffffff" fill-opacity="1"><g transform="translate(323.458637, 70.038587)"><g><path d="M 28.390625 -44.03125 L 28.390625 -35.234375 L 13.234375 -35.234375 L 13.234375 -26.46875 L 27.75 -26.46875 L 27.75 -17.671875 L 13.234375 -17.671875 L 13.234375 -8.8125 L 28.390625 -8.8125 L 28.390625 0 L 3.203125 0 L 3.203125 -44.03125 Z M 28.390625 -44.03125 "/></g></g></g><g fill="#ffffff" fill-opacity="1"><g transform="translate(354.407379, 70.038587)"><g><path d="M 13.234375 -44.03125 L 13.234375 -8.8125 L 28.390625 -8.8125 L 28.390625 0 L 3.203125 0 L 3.203125 -44.03125 Z M 13.234375 -44.03125 "/></g></g></g><g fill="#000000" fill-opacity="1"><g transform="translate(167.179477, 117.731434)"><g><path d="M 22.984375 0 L 14.203125 -13.140625 L 9.796875 -7.03125 L 9.796875 0 L 3.125 0 L 3.125 -35.625 L 9.796875 -35.625 L 9.796875 -17.546875 L 22.9375 -35.625 L 30.546875 -35.625 L 18.296875 -18.703125 L 30.953125 0 Z M 22.984375 0 "/></g></g></g><g fill="#000000" fill-opacity="1"><g transform="translate(199.461726, 117.731434)"><g><path d="M 24.140625 0 L 21.515625 -8.859375 L 12.734375 -8.859375 L 10.109375 0 L 3.125 0 L 13.625 -35.625 L 20.625 -35.625 L 20.625 -35.53125 L 31.078125 0 Z M 14.703125 -15.5 L 19.546875 -15.5 L 17.140625 -23.78125 Z M 14.703125 -15.5 "/></g></g></g><g fill="#000000" fill-opacity="1"><g transform="translate(226.087982, 117.731434)"><g><path d="M 29.875 -35.625 L 29.875 -28.984375 L 19.8125 -28.984375 L 19.8125 0 L 13.1875 0 L 13.1875 -28.984375 L 3.125 -28.984375 L 3.125 -35.625 Z M 29.875 -35.625 "/></g></g></g><g fill="#000000" fill-opacity="1"><g transform="translate(250.621299, 117.731434)"><g><path d="M 24.140625 0 L 21.515625 -8.859375 L 12.734375 -8.859375 L 10.109375 0 L 3.125 0 L 13.625 -35.625 L 20.625 -35.625 L 20.625 -35.53125 L 31.078125 0 Z M 14.703125 -15.5 L 19.546875 -15.5 L 17.140625 -23.78125 Z M 14.703125 -15.5 "/></g></g></g><g fill="#000000" fill-opacity="1"><g transform="translate(283.482471, 117.731434)"><g><path d="M 9.75 -6.640625 L 23.734375 -6.640625 L 23.734375 0 L 3.125 0 L 3.125 -35.625 L 9.75 -35.625 Z M 9.75 -6.640625 "/></g></g></g><g fill="#000000" fill-opacity="1"><g transform="translate(307.660533, 117.731434)"><g><path d="M 19.765625 -36.078125 C 22.296875 -36.078125 24.65625 -35.597656 26.84375 -34.640625 C 29.039062 -33.691406 30.972656 -32.382812 32.640625 -30.71875 C 34.304688 -29.0625 35.613281 -27.132812 36.5625 -24.9375 C 37.507812 -22.738281 37.984375 -20.378906 37.984375 -17.859375 C 37.984375 -15.335938 37.507812 -12.976562 36.5625 -10.78125 C 35.613281 -8.582031 34.304688 -6.648438 32.640625 -4.984375 C 30.972656 -3.328125 29.039062 -2.019531 26.84375 -1.0625 C 24.65625 -0.113281 22.296875 0.359375 19.765625 0.359375 C 17.242188 0.359375 14.882812 -0.113281 12.6875 -1.0625 C 10.488281 -2.019531 8.554688 -3.328125 6.890625 -4.984375 C 5.234375 -6.648438 3.929688 -8.582031 2.984375 -10.78125 C 2.035156 -12.976562 1.5625 -15.335938 1.5625 -17.859375 C 1.5625 -20.378906 2.035156 -22.738281 2.984375 -24.9375 C 3.929688 -27.132812 5.234375 -29.0625 6.890625 -30.71875 C 8.554688 -32.382812 10.488281 -33.691406 12.6875 -34.640625 C 14.882812 -35.597656 17.242188 -36.078125 19.765625 -36.078125 Z M 19.765625 -29.25 C 17.691406 -29.25 15.84375 -28.738281 14.21875 -27.71875 C 12.601562 -26.695312 11.335938 -25.320312 10.421875 -23.59375 C 9.503906 -21.875 9.046875 -19.960938 9.046875 -17.859375 C 9.046875 -15.773438 9.503906 -13.863281 10.421875 -12.125 C 11.335938 -10.394531 12.601562 -9.015625 14.21875 -7.984375 C 15.84375 -6.960938 17.691406 -6.453125 19.765625 -6.453125 C 21.878906 -6.453125 23.742188 -6.960938 25.359375 -7.984375 C 26.972656 -9.015625 28.238281 -10.394531 29.15625 -12.125 C 30.082031 -13.863281 30.546875 -15.773438 30.546875 -17.859375 C 30.546875 -19.960938 30.082031 -21.875 29.15625 -23.59375 C 28.238281 -25.320312 26.972656 -26.695312 25.359375 -27.71875 C 23.742188 -28.738281 21.878906 -29.25 19.765625 -29.25 Z M 19.765625 -29.25 "/></g></g></g><g fill="#000000" fill-opacity="1"><g transform="translate(345.41967, 117.731434)"><g><path d="M 39.328125 -20.796875 C 39.378906 -20.316406 39.425781 -19.816406 39.46875 -19.296875 C 39.519531 -18.785156 39.546875 -18.273438 39.546875 -17.765625 C 39.546875 -15.242188 39.066406 -12.882812 38.109375 -10.6875 C 37.160156 -8.488281 35.851562 -6.554688 34.1875 -4.890625 C 32.53125 -3.234375 30.601562 -1.925781 28.40625 -0.96875 C 26.207031 -0.0195312 23.847656 0.453125 21.328125 0.453125 C 18.804688 0.453125 16.445312 -0.0195312 14.25 -0.96875 C 12.050781 -1.925781 10.117188 -3.234375 8.453125 -4.890625 C 6.796875 -6.554688 5.492188 -8.488281 4.546875 -10.6875 C 3.597656 -12.882812 3.125 -15.242188 3.125 -17.765625 C 3.125 -20.285156 3.597656 -22.644531 4.546875 -24.84375 C 5.492188 -27.039062 6.796875 -28.96875 8.453125 -30.625 C 10.117188 -32.289062 12.050781 -33.597656 14.25 -34.546875 C 16.445312 -35.503906 18.804688 -35.984375 21.328125 -35.984375 C 23.347656 -35.984375 25.273438 -35.671875 27.109375 -35.046875 C 28.953125 -34.421875 30.632812 -33.546875 32.15625 -32.421875 L 27.171875 -27.4375 C 25.503906 -28.59375 23.554688 -29.171875 21.328125 -29.171875 C 19.253906 -29.171875 17.40625 -28.65625 15.78125 -27.625 C 14.164062 -26.601562 12.894531 -25.234375 11.96875 -23.515625 C 11.050781 -21.796875 10.59375 -19.878906 10.59375 -17.765625 C 10.59375 -15.691406 11.050781 -13.785156 11.96875 -12.046875 C 12.894531 -10.304688 14.164062 -8.925781 15.78125 -7.90625 C 17.40625 -6.882812 19.253906 -6.375 21.328125 -6.375 C 23.828125 -6.375 25.976562 -7.09375 27.78125 -8.53125 C 29.59375 -9.96875 30.84375 -11.785156 31.53125 -13.984375 L 22.71875 -13.984375 L 22.71875 -20.796875 Z M 39.328125 -20.796875 "/></g></g></g></svg>