<svg width="25" height="25" viewBox="0 0 377 295" fill="none" xmlns="http://www.w3.org/2000/svg">
<path d="M366.88 92.3569C366.88 85.076 363.987 78.0935 358.839 72.9451C353.692 67.797 346.708 64.9046 339.428 64.9046H284.523L243.345 10H133.535L92.3569 64.9046H37.4523C30.1714 64.9046 23.1889 67.797 18.0406 72.9451C12.8923 78.0935 10 85.076 10 92.3569V257.071C10 264.351 12.8923 271.335 18.0406 276.482C23.1889 281.63 30.1714 284.523 37.4523 284.523H339.428C346.708 284.523 353.692 281.63 358.839 276.482C363.987 271.335 366.88 264.351 366.88 257.071V92.3569Z" stroke="black" stroke-width="20" stroke-linecap="round" stroke-linejoin="round"/>
<path d="M188.44 222.755C222.553 222.755 250.208 195.101 250.208 160.987C250.208 126.874 222.553 99.2197 188.44 99.2197C154.327 99.2197 126.672 126.874 126.672 160.987C126.672 195.101 154.327 222.755 188.44 222.755Z" stroke="black" stroke-width="20" stroke-linecap="round" stroke-linejoin="round"/>
</svg>
