<svg width="253" height="81" viewBox="0 0 253 81" fill="none" xmlns="http://www.w3.org/2000/svg">
<g clip-path="url(#clip0_2515_21)">
<path fill-rule="evenodd" clip-rule="evenodd" d="M99.4502 31.6934C100.1 31.7978 102.346 30.5627 104.505 30.0807C106.52 29.6313 108.315 29.3094 110.494 29.6816C112.569 30.0357 113.754 30.9141 114.5 32.3961C115.182 33.7522 115.632 36.5614 115.06 38.0445C113.481 38.3139 112.667 36.2428 107.851 36.1865C99.8783 36.0939 94.6591 41.7177 94.9605 50.854C95.1502 56.6074 97.719 60.7021 101.701 62.4503C104.013 63.4653 107.063 63.6993 109.754 63.146C111.664 62.7529 112.97 62.0684 114.259 60.8354C114.92 60.2024 115.86 58.865 115.833 61.2238C115.827 61.7535 115.842 62.3126 115.962 62.7325C116.746 63.0266 119.609 62.9698 120.659 62.9114C121.706 62.8525 121.634 62.3962 121.631 61.3646L121.627 48.8267C121.627 35.878 124.074 22.2946 107.446 23.3722C104.708 23.5495 101.69 24.2603 99.4815 25.272C97.7545 26.0636 97.2909 26.047 98.0321 28.1675C98.3579 29.101 98.8368 31.094 99.4502 31.6934ZM106.949 41.9142C102.904 42.4241 100.437 45.943 100.939 50.7104C101.399 55.0692 104.112 57.9625 108.966 57.3546C112.985 56.8516 115.207 53.1812 114.838 48.5744C114.493 44.257 111.678 41.3176 106.949 41.9142ZM198.227 31.6944C199.113 31.8267 199.832 31.2204 200.636 30.9001C204.071 29.5306 211.174 28.168 213.296 32.2509C213.92 33.4523 214.533 36.6273 213.926 38.0033C213.043 38.2764 211.582 37.1988 210.604 36.8539C207.029 35.5915 202.4 36.1978 199.407 38.1511C195.785 40.5147 193.548 44.7835 193.831 50.9873C194.467 64.9574 208.147 65.537 213.178 60.8338C213.566 60.4707 213.943 59.6914 214.494 60.017C215.037 60.7744 214.276 62.0604 214.997 62.7647C215.58 63.0405 218.862 63.0057 219.711 62.9013C220.877 62.7588 220.49 60.8703 220.49 58.6663C220.49 55.3418 220.49 52.0168 220.49 48.6923C220.49 35.8373 222.916 22.2496 206.229 23.3771C203.467 23.564 200.531 24.2828 198.288 25.2833C196.652 26.0133 196.171 26.1129 196.868 28.1054C197.26 29.2253 197.685 30.815 198.227 31.6944ZM204.951 42.0685C196.853 44.0636 198.231 59.4423 208.45 57.2501C214.976 55.8501 215.049 46.0132 211.016 43.0481C209.618 42.0198 207.072 41.5457 204.951 42.0685ZM61.958 7.58109L62.0894 62.7084C63.026 63.0496 65.9476 62.905 67.1883 62.905C68.7225 62.905 68.3904 62.0314 68.3877 60.6887C68.3819 58.1997 68.2245 52.7329 68.6494 50.8417C69.4954 47.0753 72.1172 44.8252 76.1206 44.8767C80.5611 44.9334 82.4062 47.3222 83.0441 51.3906C83.3736 53.4934 83.4589 58.354 83.6014 60.956C83.7306 63.3051 83.7518 62.905 88.5181 62.905C90.4613 62.905 90.0804 61.4225 89.9977 59.7385C89.7127 53.9471 90.1116 45.1134 85.2198 41.3792C82.304 39.1532 79.3861 39.3396 78.5687 38.8099C78.4913 38.0831 80.7878 35.5936 81.3266 34.9514C82.4227 33.6456 83.3868 32.4893 84.4146 31.1979L88.9604 25.685C89.6115 24.8543 89.7413 23.9378 88.2516 23.9378H82.9191C81.4431 23.9378 80.4933 25.8092 79.0518 27.528L72.3228 35.8207C71.7792 36.4779 71.206 37.2176 70.6482 37.902C69.6772 39.0938 69.4822 39.6711 68.6145 39.6669C68.0026 38.6048 68.3093 33.0966 68.3093 31.4389C68.3093 23.7514 68.4439 15.0179 68.3167 7.43702C68.2886 5.7638 67.4665 6.25548 63.0557 6.25548C62.0057 6.25548 61.958 6.52382 61.958 7.58109ZM227.743 53.8421C227.418 55.7263 230.389 59.3325 231.178 59.9988C232.808 61.3743 235.027 62.7759 237.858 63.138C237.791 65.2815 235.708 69.0982 237.419 70.6739C238.989 72.1206 243.352 69.9401 244.114 73.2191C244.85 76.392 241.698 77.5741 239.076 76.5495C238.036 76.1435 236.816 74.858 236.05 75.7359C235.58 76.2747 234.277 78.0047 234.664 78.7106C234.963 79.2559 236.717 80.1048 237.525 80.3962C240.97 81.6377 245.37 81.0094 247.435 77.4113C249.242 74.2646 248.394 69.3783 245.038 67.8261C243.372 67.0559 242.39 67.5487 241.009 67.1711C240.775 66.4121 241.452 64.3147 241.658 63.341C242.629 62.9693 247.302 63.1792 250.22 59.6041C252.183 57.1992 253.512 54.3589 252.81 49.9552C251.359 40.8398 238.532 40.6963 235.529 36.3258C234.573 34.9343 234.665 32.7737 235.604 31.4823C237.423 28.9795 241.881 29.0678 244.852 30.672C248.485 32.6339 248.382 34.9428 250.259 32.4137C250.731 31.7769 251.1 31.297 251.601 30.6709C252.589 29.4353 252.755 28.9259 250.544 27.0754C243.033 20.7853 232.53 23.2292 229.595 29.8503C228.214 32.9659 228.329 37.1045 230.09 39.8034C233.968 45.7486 241.564 45.8461 245.444 49.2134C248.271 51.6675 246.703 55.7178 243.756 56.9759C239.504 58.7921 235.317 56.1382 233.457 52.84C233.06 52.1341 232.924 51.1721 231.844 51.6627C230.994 52.0489 228.301 53.39 227.743 53.8421ZM151.119 24.0562C150.77 24.2608 150.896 24.0059 150.734 24.5066C150.668 24.7091 150.679 25.0128 150.677 25.2302L150.678 28.6142C150.674 29.3346 150.601 29.6613 151.055 29.9703C152.114 30.6141 154.407 29.5467 155.299 30.3785C155.876 30.9767 155.56 35.3911 155.56 36.5609C155.56 41.1419 155.292 52.7345 155.805 55.8854C156.422 59.6802 158.282 62.1091 161.654 63.0303C164.517 63.8134 170.698 63.5483 172.622 61.8033C172.673 60.9174 172.018 56.7558 171.6 56.3407C171.105 55.849 169.671 56.3251 168.954 56.4382C167.923 56.5999 166.928 56.7097 165.839 56.7027C163.565 56.6877 162.6 55.7547 162.168 53.7569C161.65 51.3687 161.898 37.4275 161.898 34.4046C161.898 33.3478 161.858 32.2102 161.893 31.1647C161.94 29.8054 162.884 30.1251 164.107 30.1267C165.441 30.1289 169.6 30.3195 170.492 29.9398C170.832 29.1439 170.806 25.0128 170.552 24.1151C168.947 23.5211 163.282 24.3926 162.227 23.7756C161.613 23.2405 161.898 21.1709 161.898 20.1163C161.898 18.7238 161.898 17.3307 161.898 15.9381C161.899 14.62 162.324 12.8295 160.756 13.221C159.688 13.4877 158.578 13.8192 157.501 14.1053C155.086 14.7469 155.56 14.349 155.56 20.3857C155.56 21.406 155.89 23.5608 155.009 23.8661C154.075 24.1901 151.765 23.6133 151.119 24.0562ZM178.761 6.31761C177.879 6.65986 178.253 9.10917 178.253 10.1418V48.9617C178.253 53.6755 177.738 60.1836 181.857 62.5553C183.213 63.3362 187.456 64.176 189.156 63.3699C190.094 62.9248 189.783 60.9597 189.783 59.745C189.783 59.0771 189.819 58.2988 189.764 57.6427C189.691 56.7488 189.512 56.6979 188.646 56.6942C185.038 56.6765 184.66 55.6015 184.605 52.0618C184.434 41.0032 184.601 28.7577 184.601 17.5556C184.601 14.68 184.601 11.8043 184.601 8.92867C184.601 6.96515 185.074 6.23781 183.042 6.25173C182.266 6.25709 179.224 6.13765 178.761 6.31761ZM136.505 29.4251C135.831 27.137 137.527 23.9796 135.32 23.9309C129.86 23.812 130.83 23.2126 130.83 29.1476C130.83 32.974 130.6 61.5307 130.996 62.7454C131.738 62.9843 136.001 63.0378 136.868 62.7936C137.474 61.964 137.17 59.0048 137.17 57.7231L137.17 41.4135C137.199 27.5087 147.157 31.6682 147.937 31.1229C148.564 30.1894 148.902 26.9377 149.179 25.5179C149.448 24.1392 149.358 23.73 147.966 23.4906C144.687 22.9272 142.199 24.1403 140.017 25.9528C139.366 26.4943 138.813 27.0368 138.284 27.7053C137.331 28.9093 137.253 29.4802 136.505 29.4251Z" fill="black"/>
<path fill-rule="evenodd" clip-rule="evenodd" d="M0 34.9434C0 51.6354 13.1031 64.8193 28.9271 64.8193C37.3656 64.8193 44.4342 61.7331 49.904 56.2877C51.0938 55.1029 53.2574 52.644 54.1617 50.8486C53.9138 50.328 51.6856 48.1588 51.1908 47.762C50.5286 48.2777 47.9275 54.2497 40.2793 58.0118C24.039 66.0003 4.21743 54.3429 4.21743 35.2128C4.21743 24.6224 10.1338 19.2637 10.5285 18.1973C9.88746 17.5931 8.23937 15.6773 7.5973 15.3757C6.13834 16.1781 3.13671 21.6342 2.28062 23.6401C0.873046 26.9394 0 30.8975 0 34.9434Z" fill="black"/>
<path fill-rule="evenodd" clip-rule="evenodd" d="M0.214355 14.0506L3.16512 17.1025L3.57516 16.5856C3.67263 16.4298 3.76852 16.2546 3.87712 16.0838C4.10598 15.7228 4.32265 15.4041 4.57217 15.0361C5.07862 14.2911 5.49978 13.7989 6.02848 13.139C6.97675 11.9575 8.21957 10.8477 9.41895 9.82741C17.9407 2.57857 30.9876 2.63106 39.7223 9.06739C50.8881 17.2942 53.6243 32.9986 45.3579 44.5473C44.9097 45.1734 44.1511 45.9854 43.8465 46.5354C44.1098 46.9928 46.3629 49.275 46.7909 49.4743C48.893 47.5199 51.4062 43.2366 52.6268 39.7692C57.205 26.7658 52.5452 13.5091 42.681 5.94001C31.7293 -2.46305 16.2884 -1.90334 5.53315 7.51789C4.23736 8.65283 0.640813 12.6565 0.214355 14.0506Z" fill="black"/>
<path fill-rule="evenodd" clip-rule="evenodd" d="M10.5342 12.9907C11.2907 13.6463 12.7475 15.4197 13.4627 15.8149C14.7007 15.1733 15.9467 13.5231 19.7965 12.3657C22.6207 11.5167 25.5985 11.2971 28.6234 11.9297C42.0555 14.7405 47.9395 31.3806 37.9392 42.1671C35.7529 44.5253 34.6542 44.784 32.1553 46.266C32.3312 46.7791 34.6722 49.0035 35.193 49.4443C36.8961 49.0512 40.6363 45.6844 41.8462 44.2329C53.2636 30.5333 45.2261 10.212 28.6589 7.57737C23.6293 6.77772 18.1272 7.74609 13.9109 10.3245C13.0119 10.874 10.8308 12.2135 10.5342 12.9907Z" fill="black"/>
<path fill-rule="evenodd" clip-rule="evenodd" d="M7.19238 35.0783C7.19238 52.9958 26.3199 63.2911 41.0192 54.1779C41.6793 53.7682 43.5048 52.548 43.7925 51.9268C43.2929 51.208 41.6809 49.583 40.9254 49.0195C39.7563 49.5139 34.7447 54.7499 25.8008 52.9283C14.7558 50.6788 8.7022 38.9738 12.6018 28.6806C15.4402 21.1875 21.4535 19.262 22.2228 18.4988L19.2174 15.388C18.0514 15.5722 15.1997 17.9787 14.4777 18.5823C10.2226 22.1393 7.19238 28.7518 7.19238 35.0783Z" fill="black"/>
</g>
<defs>
<clipPath id="clip0_2515_21">
<rect width="253" height="81" fill="white"/>
</clipPath>
</defs>
</svg>
