<svg width="94" height="30" viewBox="0 0 94 30" fill="none" xmlns="http://www.w3.org/2000/svg">
<g clip-path="url(#clip0_2408_336)">
<path fill-rule="evenodd" clip-rule="evenodd" d="M36.9499 11.7384C37.1915 11.7771 38.026 11.3196 38.8279 11.1411C39.5768 10.9747 40.2437 10.8554 41.053 10.9933C41.8242 11.1244 42.2643 11.4497 42.5414 11.9986C42.795 12.5009 42.9623 13.5414 42.7495 14.0907C42.1629 14.1904 41.8604 13.4233 40.0712 13.4025C37.109 13.3682 35.1698 15.4511 35.2818 18.8349C35.3523 20.9658 36.3067 22.4824 37.7861 23.1298C38.645 23.5057 39.7786 23.5924 40.7781 23.3875C41.4878 23.2419 41.9732 22.9884 42.4519 22.5317C42.6975 22.2973 43.0467 21.8019 43.0369 22.6756C43.0347 22.8718 43.0402 23.0789 43.0847 23.2344C43.376 23.3433 44.4396 23.3223 44.83 23.3006C45.2189 23.2788 45.1921 23.1098 45.1911 22.7277L45.1896 18.0841C45.1896 13.2883 46.0987 8.25736 39.9207 8.65649C38.9035 8.72215 37.7821 8.98538 36.9616 9.36011C36.3199 9.6533 36.1477 9.64715 36.423 10.4325C36.5441 10.7783 36.722 11.5164 36.9499 11.7384ZM39.736 15.5239C38.2331 15.7127 37.3164 17.016 37.503 18.7817C37.6739 20.3961 38.6818 21.4677 40.4856 21.2425C41.9785 21.0563 42.8044 19.6968 42.6672 17.9906C42.5389 16.3916 41.4931 15.3029 39.736 15.5239ZM73.6495 11.7388C73.9786 11.7878 74.2459 11.5632 74.5447 11.4446C75.8209 10.9374 78.46 10.4327 79.2483 11.9449C79.4802 12.3898 79.7081 13.5658 79.4825 14.0754C79.1542 14.1766 78.6116 13.7774 78.2482 13.6497C76.92 13.1821 75.2001 13.4067 74.0879 14.1301C72.7422 15.0055 71.9111 16.5866 72.0163 18.8843C72.2526 24.0584 77.3353 24.273 79.2044 22.5312C79.3487 22.3967 79.4886 22.108 79.6933 22.2286C79.8953 22.5091 79.6126 22.9854 79.8805 23.2463C80.097 23.3484 81.3164 23.3355 81.6319 23.2969C82.0649 23.2441 81.9212 22.5446 81.9212 21.7283C81.9212 20.4971 81.9212 19.2656 81.9212 18.0343C81.9212 13.2732 82.8227 8.2407 76.6226 8.65827C75.5964 8.7275 74.5055 8.99372 73.6724 9.36427C73.0646 9.63465 72.8858 9.67155 73.1449 10.4095C73.2903 10.8243 73.4482 11.413 73.6495 11.7388ZM76.1479 15.581C73.139 16.32 73.6509 22.0158 77.4479 21.2038C79.8727 20.6853 79.8998 17.042 78.4014 15.9438C77.8819 15.563 76.9358 15.3874 76.1479 15.581ZM23.02 2.80791L23.0688 23.2254C23.4168 23.3518 24.5023 23.2983 24.9633 23.2983C25.5333 23.2983 25.4099 22.9747 25.4089 22.4774C25.4068 21.5556 25.3483 19.5308 25.5062 18.8303C25.8205 17.4354 26.7946 16.602 28.282 16.6211C29.9318 16.6421 30.6174 17.5268 30.8544 19.0337C30.9768 19.8125 31.0085 21.6127 31.0614 22.5764C31.1095 23.4464 31.1173 23.2983 32.8882 23.2983C33.6102 23.2983 33.4686 22.7492 33.4379 22.1255C33.332 19.9805 33.4803 16.7088 31.6627 15.3257C30.5794 14.5013 29.4953 14.5703 29.1916 14.3741C29.1628 14.1049 30.0161 13.1829 30.2163 12.9451C30.6235 12.4614 30.9817 12.0332 31.3636 11.5549L33.0525 9.51305C33.2944 9.20538 33.3427 8.86597 32.7892 8.86597H30.8079C30.2596 8.86597 29.9066 9.55907 29.3711 10.1956L26.871 13.267C26.669 13.5104 26.456 13.7844 26.2488 14.0379C25.888 14.4793 25.8156 14.6931 25.4932 14.6915C25.2658 14.2982 25.3798 12.2581 25.3798 11.6442C25.3798 8.79693 25.4298 5.56229 25.3825 2.75455C25.3721 2.13484 25.0666 2.31694 23.4278 2.31694C23.0377 2.31694 23.02 2.41633 23.02 2.80791ZM84.6162 19.9416C84.4954 20.6395 85.5992 21.9751 85.8922 22.2219C86.4979 22.7313 87.3222 23.2504 88.3741 23.3845C88.3494 24.1784 87.5755 25.592 88.2111 26.1756C88.7945 26.7114 90.4156 25.9039 90.6984 27.1183C90.972 28.2934 89.8009 28.7312 88.8268 28.3518C88.4404 28.2014 87.9871 27.7253 87.7025 28.0504C87.5279 28.25 87.0437 28.8907 87.1874 29.1522C87.2984 29.3541 87.9501 29.6685 88.2504 29.7765C89.5304 30.2363 91.1653 30.0036 91.9325 28.6709C92.6037 27.5055 92.2888 25.6958 91.0419 25.1209C90.423 24.8356 90.0581 25.0181 89.5448 24.8783C89.4578 24.5972 89.7095 23.8204 89.7861 23.4597C90.1469 23.3221 91.8829 23.3998 92.9672 22.0757C93.6967 21.185 94.1901 20.133 93.9295 18.502C93.3904 15.126 88.6246 15.0728 87.509 13.4541C87.1537 12.9387 87.188 12.1385 87.5367 11.6602C88.2127 10.7332 89.8688 10.766 90.9728 11.3601C92.3226 12.0867 92.2842 12.9419 92.9816 12.0052C93.157 11.7693 93.2942 11.5916 93.4802 11.3597C93.8473 10.902 93.9089 10.7134 93.0877 10.028C90.2969 7.69835 86.3947 8.60352 85.3041 11.0558C84.791 12.2097 84.8339 13.7425 85.488 14.7421C86.9289 16.944 89.7511 16.9801 91.1926 18.2273C92.2431 19.1362 91.6605 20.6363 90.5655 21.1023C88.9858 21.775 87.4301 20.792 86.7392 19.5705C86.5914 19.309 86.541 18.9527 86.1397 19.1344C85.8237 19.2775 84.8233 19.7742 84.6162 19.9416ZM56.147 8.90981C56.0173 8.98558 56.0643 8.89116 56.0039 9.07664C55.9795 9.15162 55.9834 9.2641 55.9826 9.34464L55.983 10.5979C55.9817 10.8648 55.9545 10.9858 56.1232 11.1002C56.5166 11.3387 57.3685 10.9433 57.7 11.2514C57.9143 11.473 57.797 13.1079 57.797 13.5412C57.797 15.2378 57.6976 19.5314 57.8879 20.6984C58.1172 22.1039 58.8083 23.0035 60.0611 23.3447C61.1248 23.6347 63.4216 23.5365 64.1362 22.8902C64.1553 22.5621 63.9119 21.0208 63.7566 20.867C63.5725 20.6849 63.0399 20.8613 62.7736 20.9031C62.3904 20.963 62.0207 21.0037 61.6161 21.0011C60.7713 20.9956 60.4128 20.65 60.252 19.9101C60.0597 19.0255 60.152 13.8621 60.152 12.7425C60.152 12.3511 60.1369 11.9298 60.1501 11.5426C60.1674 11.0391 60.5181 11.1575 60.9726 11.1581C61.4682 11.1589 63.0135 11.2296 63.345 11.0889C63.4714 10.7941 63.4615 9.2641 63.367 8.93163C62.7708 8.71163 60.6662 9.03438 60.2743 8.80586C60.0462 8.60769 60.152 7.84118 60.152 7.45059C60.152 6.93482 60.152 6.41886 60.152 5.9031C60.1522 5.4149 60.3103 4.75175 59.7275 4.89676C59.3307 4.99555 58.9183 5.11834 58.5182 5.22427C57.6208 5.46192 57.797 5.31453 57.797 7.55037C57.797 7.92827 57.9198 8.72631 57.5923 8.83938C57.2455 8.9594 56.3869 8.74575 56.147 8.90981ZM66.4173 2.33996C66.0894 2.46671 66.2283 3.37386 66.2283 3.75632V18.1341C66.2283 19.8799 66.037 22.2903 67.5673 23.1687C68.0712 23.4579 69.6476 23.769 70.2792 23.4704C70.628 23.3056 70.5123 22.5778 70.5125 22.1279C70.5125 21.8805 70.5257 21.5923 70.5054 21.3493C70.4782 21.0182 70.4117 20.9993 70.0897 20.9979C68.7495 20.9914 68.6088 20.5933 68.5885 19.2822C68.5249 15.1865 68.5869 10.6511 68.5869 6.50218C68.5869 5.43712 68.5869 4.37207 68.5869 3.30701C68.5871 2.57979 68.7627 2.3104 68.0077 2.31556C67.7195 2.31754 66.5893 2.2733 66.4173 2.33996ZM50.7173 10.8983C50.4667 10.0508 51.097 8.88144 50.2772 8.86339C48.2485 8.81935 48.6087 8.59737 48.6087 10.7955C48.6087 12.2127 48.5232 22.7892 48.6705 23.2391C48.946 23.3276 50.5299 23.3474 50.8521 23.257C51.0775 22.9497 50.9645 21.8537 50.9645 21.379L50.9643 15.3384C50.9751 10.1885 54.6751 11.7291 54.9648 11.5271C55.1979 11.1814 55.3235 9.97704 55.4262 9.45116C55.5262 8.94055 55.4927 8.789 54.9757 8.70033C53.7573 8.49164 52.8328 8.94095 52.0223 9.61224C51.7802 9.81279 51.5747 10.0137 51.3782 10.2613C51.0243 10.7072 50.9954 10.9187 50.7173 10.8983Z" fill="black"/>
<path fill-rule="evenodd" clip-rule="evenodd" d="M0 12.9421C0 19.1243 4.86835 24.0072 10.7476 24.0072C13.8829 24.0072 16.5092 22.8642 18.5414 20.8474C18.9835 20.4086 19.7873 19.4979 20.1233 18.8329C20.0312 18.6401 19.2033 17.8367 19.0195 17.6897C18.7735 17.8808 17.807 20.0926 14.9654 21.486C8.93147 24.4447 1.56695 20.1271 1.56695 13.0419C1.56695 9.1195 3.76513 7.1348 3.91176 6.73984C3.6736 6.51608 3.06127 5.80651 2.82271 5.69482C2.28065 5.99198 1.16542 8.01279 0.847345 8.75569C0.324373 9.97765 0 11.4436 0 12.9421Z" fill="black"/>
<path fill-rule="evenodd" clip-rule="evenodd" d="M0.0797119 5.20404L1.17604 6.33436L1.32839 6.14293C1.36461 6.0852 1.40023 6.02034 1.44058 5.95706C1.52561 5.82335 1.60611 5.70532 1.69882 5.56904C1.88699 5.29311 2.04347 5.11081 2.2399 4.86641C2.59222 4.42881 3.05398 4.01778 3.4996 3.63988C6.66578 0.955131 11.5133 0.974572 14.7586 3.3584C18.9071 6.40538 19.9237 12.2218 16.8524 16.4991C16.6859 16.731 16.404 17.0317 16.2909 17.2354C16.3887 17.4049 17.2258 18.2501 17.3848 18.3239C18.1659 17.6 19.0996 16.0137 19.5531 14.7294C21.2541 9.91337 19.5228 5.00349 15.8578 2.20011C11.7888 -0.912135 6.05187 -0.704837 2.05587 2.78451C1.57442 3.20486 0.238159 4.68768 0.0797119 5.20404Z" fill="black"/>
<path fill-rule="evenodd" clip-rule="evenodd" d="M3.91394 4.81141C4.19501 5.05422 4.73629 5.71102 5.00201 5.85742C5.46199 5.61977 5.92493 5.00859 7.35528 4.57991C8.40457 4.26549 9.51095 4.18416 10.6348 4.41844C15.6254 5.45949 17.8116 11.6225 14.0961 15.6175C13.2837 16.4909 12.8755 16.5867 11.9471 17.1356C12.0124 17.3256 12.8822 18.1495 13.0757 18.3127C13.7085 18.1671 15.0981 16.9202 15.5477 16.3826C19.7897 11.3087 16.8034 3.78226 10.648 2.80647C8.77934 2.51031 6.73508 2.86896 5.16852 3.82392C4.83451 4.02745 4.02416 4.52357 3.91394 4.81141Z" fill="black"/>
<path fill-rule="evenodd" clip-rule="evenodd" d="M2.67236 12.9922C2.67236 19.6283 9.77904 23.4414 15.2404 20.0661C15.4857 19.9143 16.1639 19.4624 16.2708 19.2323C16.0852 18.9661 15.4863 18.3643 15.2056 18.1556C14.7712 18.3387 12.9092 20.2779 9.58615 19.6033C5.48248 18.7701 3.23332 14.4349 4.68218 10.6226C5.73678 7.84742 7.97098 7.13428 8.25677 6.8516L7.14017 5.69946C6.70695 5.7677 5.64742 6.65898 5.37914 6.88255C3.79822 8.19993 2.67236 10.649 2.67236 12.9922Z" fill="black"/>
</g>
<defs>
<clipPath id="clip0_2408_336">
<rect width="94" height="30" fill="white"/>
</clipPath>
</defs>
</svg>
