<svg width="27" height="27" viewBox="0 0 377 377" fill="none" xmlns="http://www.w3.org/2000/svg">
<path d="M366.88 339.428C366.88 346.708 363.987 353.692 358.839 358.839C353.692 363.987 346.708 366.88 339.428 366.88H37.4523C30.1714 366.88 23.1889 363.987 18.0406 358.839C12.8923 353.692 10 346.708 10 339.428V131.065C10.0303 123.863 12.8895 116.961 17.9612 111.848L111.848 17.9612C116.961 12.8895 123.863 10.0303 131.065 10H339.428C346.708 10 353.692 12.8923 358.839 18.0406C363.987 23.1889 366.88 30.1714 366.88 37.4523V339.428Z" stroke="black" stroke-width="20" stroke-linecap="round" stroke-linejoin="round"/>
<path d="M284.523 366.881V243.345C284.523 239.705 283.076 236.213 280.504 233.64C277.929 231.065 274.437 229.619 270.797 229.619H106.083C102.443 229.619 98.9513 231.065 96.3773 233.64C93.8031 236.213 92.3569 239.705 92.3569 243.345V366.881" stroke="black" stroke-width="20" stroke-linecap="round" stroke-linejoin="round"/>
<path d="M284.523 10V106.083C284.523 109.724 283.077 113.215 280.504 115.789C277.929 118.363 274.437 119.809 270.797 119.809H160.988C157.347 119.809 153.856 118.363 151.282 115.789C148.708 113.215 147.262 109.724 147.262 106.083V10" stroke="black" stroke-width="20" stroke-linecap="round" stroke-linejoin="round"/>
</svg>
