<svg width="68" height="101" viewBox="0 0 68 101" fill="none" xmlns="http://www.w3.org/2000/svg">
<path fill-rule="evenodd" clip-rule="evenodd" d="M67.8753 50.193C67.8338 46.9274 67.0834 43.5044 65.8215 40.4464C59.9995 26.3328 45.7566 18.5144 29.4171 20.2887C24.814 20.7885 20.4103 22.037 16.5966 24.5145C16.5966 29.4049 16.5966 34.113 16.5966 39.4838C17.9147 38.2988 18.7727 37.5048 19.6569 36.7366C26.7625 30.5645 38.1622 29.8574 46.2888 35.0767C54.6148 40.424 57.6589 50.3621 53.6497 59.1075C49.9145 67.2552 39.6715 72.2913 30.2653 70.6054C19.7522 68.7222 12.6273 60.784 12.5409 50.6226C12.4476 39.691 12.5167 28.7579 12.5034 17.8259C12.5014 16.873 12.4136 15.9196 12.3696 15.0415C10.1327 15.4745 8.20587 16.1522 6.28741 16.1346C4.28551 16.1161 2.29054 15.4271 0.133629 15C0.0891972 15.7149 0.00228271 16.4479 0.00228271 17.1808C-0.00265415 28.947 0.000317607 40.7142 0.0121661 52.4814C0.0131534 53.3131 0.0274711 54.156 0.154842 54.9769C3.79775 78.3676 31.2897 89.9662 52.886 77.2359C53.5983 76.8162 54.3507 76.4521 55.5 75.8408C55.5 77.1738 55.499 77.9948 55.501 78.8167C55.5089 82.655 55.4171 86.4978 55.5474 90.3322C55.7587 96.5058 61.6711 101.628 67.7893 100.937C67.8481 100.313 67.9641 99.6625 67.9641 99.0116C67.9725 82.7391 68.0806 66.4636 67.8753 50.193Z" fill="url(#paint0_radial_0_1)" fill-opacity="0.1"/>
<path fill-rule="evenodd" clip-rule="evenodd" d="M6.09125 12C9.46223 11.9933 12.0081 9.40364 12 5.98959C11.9914 2.60164 9.43085 0.0242214 6.04751 0.000171578C2.61518 -0.0238782 0.0365477 2.48293 0.000402883 5.87957C-0.0371687 9.39954 2.55715 12.0066 6.09125 12Z" fill="white" fill-opacity="0.15"/>
<defs>
<radialGradient id="paint0_radial_0_1" cx="0" cy="0" r="1" gradientUnits="userSpaceOnUse" gradientTransform="translate(74.9006 108.821) scale(151.712 150.165)">
<stop stop-color="white"/>
<stop offset="1" stop-color="white"/>
</radialGradient>
</defs>
</svg>
