<svg width="247" height="71" viewBox="0 0 247 71" fill="none" xmlns="http://www.w3.org/2000/svg">
<path fill-rule="evenodd" clip-rule="evenodd" d="M246.916 35.9781C246.888 33.746 246.38 31.4063 245.526 29.3161C241.587 19.6691 231.951 14.325 220.897 15.5378C217.783 15.8795 214.803 16.7328 212.223 18.4262C212.223 21.7689 212.223 24.9871 212.223 28.6581C213.115 27.8481 213.695 27.3054 214.294 26.7803C219.101 22.5615 226.813 22.0782 232.311 25.6457C237.944 29.3007 240.004 36.0937 237.291 42.0713C234.764 47.6405 227.834 51.0827 221.471 49.9304C214.358 48.6432 209.538 43.2173 209.479 36.2717C209.416 28.7997 209.463 21.3267 209.454 13.8544C209.452 13.2031 209.393 12.5514 209.363 11.9512C207.85 12.2472 206.546 12.7104 205.248 12.6984C203.894 12.6857 202.544 12.2148 201.085 11.9229C201.055 12.4115 200.996 12.9125 200.996 13.4135C200.993 21.456 200.995 29.4991 201.003 37.5422C201.004 38.1107 201.013 38.6869 201.099 39.248C203.564 55.2361 222.164 63.164 236.775 54.4625C237.257 54.1756 237.766 53.9268 238.543 53.5089C238.543 54.4201 238.543 54.9812 238.544 55.543C238.549 58.1666 238.487 60.7932 238.575 63.4141C238.718 67.6339 242.718 71.1353 246.858 70.663C246.897 70.2365 246.976 69.7916 246.976 69.3467C246.981 58.2241 247.055 47.0994 246.916 35.9781Z" fill="url(#paint0_radial_382_110)"/>
<path fill-rule="evenodd" clip-rule="evenodd" d="M205.272 10.3162C207.64 10.3119 209.427 8.62149 209.422 6.39302C209.416 4.18158 207.617 2.49921 205.241 2.48351C202.831 2.46781 201.02 4.10409 200.995 6.32121C200.968 8.61882 202.79 10.3206 205.272 10.3162Z" fill="#06A0FF"/>
<path fill-rule="evenodd" clip-rule="evenodd" d="M75.2897 10.3162C77.6571 10.3119 79.445 8.62149 79.4394 6.39302C79.4334 4.18158 77.6351 2.49921 75.259 2.48351C72.8485 2.46781 71.0375 4.10409 71.0121 6.32121C70.9854 8.61882 72.8074 10.3206 75.2897 10.3162Z" fill="black"/>
<path d="M0 16.0297H5.34338V23.2051C7.20278 20.5592 9.11295 18.6253 11.0749 17.4038C13.775 15.7759 16.6157 14.9613 19.596 14.9613C21.608 14.9613 23.5182 15.3564 25.3268 16.1446C27.1358 16.9336 28.6134 17.983 29.7594 19.2933C30.9057 20.6043 31.899 22.4804 32.74 24.9226C34.5166 21.6661 36.7374 19.1918 39.403 17.4994C42.0687 15.8076 44.9371 14.9609 48.0083 14.9609C50.8767 14.9609 53.4088 15.6864 55.6045 17.1366C57.8003 18.5872 59.4309 20.6096 60.497 23.2051C61.5631 25.8007 62.0966 29.6935 62.0966 34.8839V57.5547H56.6389V34.8839C56.6389 30.4316 56.3216 27.3718 55.6877 25.7052C55.0538 24.0391 53.9696 22.6965 52.4352 21.6784C50.9008 20.661 49.0688 20.152 46.9385 20.152C44.3513 20.152 41.9869 20.9152 39.8436 22.4419C37.7003 23.9683 36.1345 26.0044 35.1455 28.5482C34.1568 31.093 33.6625 35.3418 33.6625 41.2958V57.5547H28.3191V36.2964C28.3191 31.284 28.0072 27.8809 27.3843 26.0869C26.7603 24.2933 25.6725 22.8558 24.121 21.7743C22.5689 20.6931 20.7242 20.1523 18.5869 20.1523C16.1187 20.1523 13.8097 20.8968 11.6597 22.3852C9.50941 23.8731 7.91955 25.8768 6.88915 28.3956C5.85875 30.9146 5.34338 34.7693 5.34338 39.9601V57.5547H0V16.0297Z" fill="black"/>
<path d="M77.8973 16.0298H72.5539V57.5544H77.8973V16.0298Z" fill="black"/>
<path d="M88.9655 0H94.3088V32.7884L113.561 16.0298H121.407L98.5834 35.8382L122.743 57.5548H115.222L94.3088 38.8586V57.5548H88.9655V0Z" fill="black"/>
<path d="M126.215 16.0297H131.673V22.0983C133.301 19.7068 135.019 17.9189 136.826 16.7355C138.632 15.5525 140.515 14.9609 142.474 14.9609C143.949 14.9609 145.528 15.4322 147.207 16.3734L144.421 20.8768C143.301 20.3938 142.359 20.1517 141.596 20.1517C139.815 20.1517 138.098 20.8832 136.444 22.3461C134.79 23.8097 133.53 26.0806 132.665 29.1588C132.003 31.5248 131.673 36.3088 131.673 43.5092V57.5544H126.215V16.0297Z" fill="black"/>
<path d="M171.404 14.9609C177.802 14.9609 183.103 17.2769 187.309 21.9072C191.132 26.131 193.045 31.131 193.045 36.9066C193.045 42.7079 191.024 47.7781 186.984 52.1158C182.944 56.4542 177.75 58.6228 171.404 58.6228C165.031 58.6228 159.826 56.4542 155.786 52.1158C151.745 47.7781 149.726 42.7079 149.726 36.9066C149.726 31.1564 151.637 26.1694 155.461 21.9453C159.666 17.2893 164.981 14.9609 171.404 14.9609ZM171.385 20.1901C166.942 20.1901 163.125 21.8311 159.933 25.1133C156.741 28.3956 155.146 32.3652 155.146 37.0212C155.146 40.0235 155.873 42.8225 157.328 45.4177C158.784 48.0132 160.75 50.0169 163.227 51.4291C165.704 52.8413 168.423 53.5473 171.385 53.5473C174.346 53.5473 177.066 52.8413 179.543 51.4291C182.02 50.0166 183.986 48.0129 185.441 45.4177C186.897 42.8225 187.625 40.0239 187.625 37.0212C187.625 32.3652 186.022 28.3956 182.817 25.1133C179.612 21.8311 175.802 20.1901 171.385 20.1901Z" fill="black"/>
<defs>
<radialGradient id="paint0_radial_382_110" cx="0" cy="0" r="1" gradientUnits="userSpaceOnUse" gradientTransform="translate(251.669 76.052) scale(102.641 102.641)">
<stop stop-color="#0630FF"/>
<stop offset="0.675" stop-color="#06A0FF"/>
</radialGradient>
</defs>
</svg>
