<svg width="750" height="750" viewBox="0 0 750 750" fill="none" xmlns="http://www.w3.org/2000/svg">
<path d="M37.5 750L712.5 750C722.442 749.988 731.974 746.034 739.004 739.004C746.034 731.974 749.988 722.442 750 712.5L750 462.5L700 462.5L700 700L50 700L49.9999 50.0001L700 50L700 300L750 300L750 37.5C749.988 27.5579 746.034 18.0264 739.004 10.9963C731.974 3.96619 722.442 0.0115812 712.5 3.27835e-06L37.4999 6.22887e-05C27.5579 0.011642 18.0263 3.96625 10.9962 10.9964C3.96612 18.0265 0.0115157 27.558 -6.22887e-05 37.5001L-3.27835e-06 712.5C0.0115764 722.442 3.96619 731.974 10.9963 739.004C18.0264 746.034 27.5579 749.988 37.5 750Z" fill="black"/>
<path d="M447.848 207.335L412.494 171.98L202.145 382.328L412.494 592.677L447.848 557.324L297.853 407.327L750 407.327L750 357.327L297.856 357.327L447.848 207.335Z" fill="black"/>
</svg>
