<svg width="186" height="36" viewBox="0 0 186 36" fill="none" xmlns="http://www.w3.org/2000/svg">
<path d="M14.84 4.968C14.84 5.928 14.636 6.672 14.228 7.2C13.844 7.728 13.328 7.992 12.68 7.992C12.344 7.992 12.056 7.932 11.816 7.812C11.6 7.692 11.372 7.5 11.132 7.236C11.468 6.996 11.72 6.648 11.888 6.192C12.08 5.736 12.176 5.256 12.176 4.752C12.176 4.344 12.104 3.936 11.96 3.528C11.84 3.12 11.636 2.76 11.348 2.448C11.06 2.112 10.7 1.848 10.268 1.656C9.836 1.44 9.32 1.332 8.72 1.332C8.096 1.332 7.532 1.452 7.028 1.692C6.548 1.908 6.14 2.22 5.804 2.628C5.492 3.012 5.252 3.468 5.084 3.996C4.916 4.524 4.832 5.088 4.832 5.688C4.832 6.84 5.108 7.764 5.66 8.46C6.236 9.156 6.944 9.744 7.784 10.224C8.624 10.704 9.536 11.16 10.52 11.592C11.528 12.024 12.452 12.564 13.292 13.212C14.132 13.836 14.828 14.64 15.38 15.624C15.956 16.584 16.244 17.868 16.244 19.476C16.244 20.916 16.004 22.152 15.524 23.184C15.044 24.192 14.408 25.008 13.616 25.632C12.848 26.256 11.96 26.712 10.952 27C9.944 27.288 8.912 27.432 7.856 27.432C6.92 27.432 5.996 27.324 5.084 27.108C4.172 26.892 3.356 26.556 2.636 26.1C1.916 25.62 1.328 25.02 0.872 24.3C0.44 23.556 0.224 22.668 0.224 21.636C0.224 21.036 0.308 20.424 0.476 19.8C0.644 19.176 0.884 18.612 1.196 18.108C1.532 17.604 1.94 17.196 2.42 16.884C2.924 16.548 3.5 16.38 4.148 16.38C4.676 16.38 5.12 16.524 5.48 16.812C5.864 17.1 6.2 17.64 6.488 18.432C5.912 18.456 5.432 18.576 5.048 18.792C4.688 19.008 4.4 19.272 4.184 19.584C3.968 19.896 3.812 20.232 3.716 20.592C3.644 20.952 3.608 21.288 3.608 21.6C3.608 22.248 3.752 22.812 4.04 23.292C4.328 23.772 4.688 24.18 5.12 24.516C5.576 24.828 6.056 25.068 6.56 25.236C7.088 25.38 7.592 25.452 8.072 25.452C9.176 25.452 10.088 25.032 10.808 24.192C11.528 23.352 11.888 22.14 11.888 20.556C11.888 19.212 11.624 18.156 11.096 17.388C10.592 16.596 9.944 15.936 9.152 15.408C8.36 14.88 7.508 14.424 6.596 14.04C5.708 13.656 4.868 13.2 4.076 12.672C3.284 12.144 2.624 11.472 2.096 10.656C1.592 9.816 1.34 8.7 1.34 7.308C1.34 6.108 1.544 5.052 1.952 4.14C2.36 3.228 2.888 2.472 3.536 1.872C4.208 1.248 4.976 0.791998 5.84 0.503998C6.728 0.191999 7.64 0.0359995 8.576 0.0359995C8.984 0.0359995 9.536 0.0839989 10.232 0.179998C10.952 0.275998 11.648 0.491998 12.32 0.827998C13.016 1.164 13.604 1.668 14.084 2.34C14.588 2.988 14.84 3.864 14.84 4.968ZM29.2699 13.5C29.2699 15.18 28.5739 16.584 27.1819 17.712C25.8139 18.84 23.9059 19.536 21.4579 19.8C21.5539 20.76 21.7219 21.54 21.9619 22.14C22.2259 22.74 22.5379 23.22 22.8979 23.58C23.2579 23.916 23.6659 24.156 24.1219 24.3C24.6019 24.42 25.0939 24.48 25.5979 24.48C26.3659 24.48 27.0859 24.348 27.7579 24.084C28.4539 23.82 29.0299 23.364 29.4859 22.716C29.5099 22.884 29.5219 23.052 29.5219 23.22C29.5459 23.364 29.5579 23.496 29.5579 23.616C29.5579 24.168 29.4139 24.66 29.1259 25.092C28.8619 25.524 28.4899 25.908 28.0099 26.244C27.5539 26.556 27.0139 26.796 26.3899 26.964C25.7899 27.132 25.1539 27.216 24.4819 27.216C23.6659 27.216 22.8499 27.072 22.0339 26.784C21.2179 26.472 20.4739 25.992 19.8019 25.344C19.1539 24.672 18.6259 23.808 18.2179 22.752C17.8099 21.696 17.6059 20.412 17.6059 18.9C17.6059 17.892 17.7139 16.8 17.9299 15.624C18.1699 14.448 18.5539 13.356 19.0819 12.348C19.6339 11.34 20.3419 10.5 21.2059 9.828C22.0939 9.156 23.1859 8.82 24.4819 8.82C25.0819 8.82 25.6579 8.892 26.2099 9.036C26.7859 9.156 27.3019 9.396 27.7579 9.756C28.2139 10.092 28.5739 10.56 28.8379 11.16C29.1259 11.76 29.2699 12.54 29.2699 13.5ZM41.8339 23.94C41.6419 23.892 41.4859 23.772 41.3659 23.58C41.2459 23.388 41.1859 23.196 41.1859 23.004C41.1859 22.62 41.3299 22.332 41.6179 22.14C41.9299 21.924 42.2779 21.816 42.6619 21.816C43.1899 21.816 43.6699 21.996 44.1019 22.356C44.5339 22.716 44.7499 23.244 44.7499 23.94C44.7499 24.3 44.6539 24.66 44.4619 25.02C44.2699 25.38 43.9939 25.704 43.6339 25.992C43.2739 26.28 42.8419 26.52 42.3379 26.712C41.8339 26.904 41.2699 27 40.6459 27H31.2139L38.9899 10.944H35.8939C35.3659 10.944 34.8859 10.98 34.4539 11.052C34.0459 11.1 33.8419 11.232 33.8419 11.448C33.8419 11.688 33.9379 11.88 34.1299 12.024C34.3459 12.168 34.4539 12.36 34.4539 12.6C34.4539 12.864 34.2979 13.116 33.9859 13.356C33.6979 13.596 33.3139 13.716 32.8339 13.716C32.1619 13.716 31.6459 13.464 31.2859 12.96C30.9499 12.432 30.7819 11.82 30.7819 11.124C30.7819 10.5 31.0459 9.996 31.5739 9.612C32.1259 9.204 33.0979 9 34.4899 9H43.4179L35.7139 24.48C35.8579 24.48 36.1339 24.492 36.5419 24.516C36.9739 24.54 37.4299 24.564 37.9099 24.588C38.3899 24.612 38.8579 24.636 39.3139 24.66C39.7699 24.684 40.1179 24.696 40.3579 24.696C40.7899 24.696 41.1259 24.624 41.3659 24.48C41.6299 24.336 41.7859 24.156 41.8339 23.94ZM21.4219 18.396C23.1259 18.132 24.4699 17.532 25.4539 16.596C26.4619 15.66 26.9659 14.508 26.9659 13.14C26.9659 12.228 26.8099 11.58 26.4979 11.196C26.1859 10.788 25.7419 10.584 25.1659 10.584C24.5419 10.584 23.9899 10.824 23.5099 11.304C23.0539 11.784 22.6699 12.408 22.3579 13.176C22.0459 13.92 21.8059 14.76 21.6379 15.696C21.4939 16.608 21.4219 17.508 21.4219 18.396ZM58.0185 9V26.244C58.6185 26.052 59.1465 25.836 59.6025 25.596C60.0825 25.356 60.4905 25.032 60.8265 24.624C61.1865 24.216 61.4745 23.688 61.6905 23.04C61.9305 22.392 62.1105 21.564 62.2305 20.556H63.5625C63.3705 21.828 63.1185 22.872 62.8065 23.688C62.5185 24.48 62.1465 25.128 61.6905 25.632C61.2585 26.112 60.7305 26.496 60.1065 26.784C59.5065 27.048 58.8105 27.3 58.0185 27.54V29.844C58.0185 30.972 57.8985 31.92 57.6585 32.688C57.4185 33.48 57.0825 34.116 56.6505 34.596C56.2425 35.1 55.7625 35.46 55.2105 35.676C54.6825 35.892 54.1185 36 53.5185 36C52.3185 36 51.3825 35.652 50.7105 34.956C50.0385 34.284 49.7025 33.456 49.7025 32.472C49.7025 31.848 49.8345 31.284 50.0985 30.78C50.3865 30.276 50.7465 29.808 51.1785 29.376C51.6345 28.968 52.1385 28.596 52.6905 28.26C53.2665 27.948 53.8425 27.672 54.4185 27.432V24.336C53.9625 24.96 53.3865 25.476 52.6905 25.884C52.0185 26.292 51.2505 26.496 50.3865 26.496C49.6665 26.496 48.9345 26.364 48.1905 26.1C47.4705 25.812 46.8105 25.356 46.2105 24.732C45.6345 24.108 45.1545 23.292 44.7705 22.284C44.4105 21.276 44.2305 20.052 44.2305 18.612C44.2305 17.532 44.3505 16.416 44.5905 15.264C44.8545 14.112 45.2625 13.068 45.8145 12.132C46.3665 11.172 47.0745 10.38 47.9385 9.756C48.8025 9.132 49.8465 8.82 51.0705 8.82C51.3585 8.82 51.6585 8.856 51.9705 8.928C52.3065 8.976 52.6185 9.072 52.9065 9.216C53.2185 9.36 53.5065 9.564 53.7705 9.828C54.0345 10.068 54.2505 10.368 54.4185 10.728V9H58.0185ZM51.2865 23.76C51.6465 23.76 52.0065 23.664 52.3665 23.472C52.7505 23.28 53.0865 23.016 53.3745 22.68C53.6865 22.344 53.9385 21.948 54.1305 21.492C54.3225 21.036 54.4185 20.544 54.4185 20.016V12.348C54.2505 11.964 53.9865 11.616 53.6265 11.304C53.2905 10.968 52.8465 10.8 52.2945 10.8C51.5265 10.8 50.8665 11.052 50.3145 11.556C49.7625 12.036 49.3185 12.648 48.9825 13.392C48.6465 14.136 48.3945 14.952 48.2265 15.84C48.0825 16.728 48.0105 17.568 48.0105 18.36C48.0105 20.304 48.2865 21.696 48.8385 22.536C49.4145 23.352 50.2305 23.76 51.2865 23.76ZM52.8345 34.128C53.4825 34.128 53.9025 33.876 54.0945 33.372C54.3105 32.892 54.4185 32.232 54.4185 31.392V28.872C53.2185 29.424 52.3665 29.964 51.8625 30.492C51.3585 31.044 51.1065 31.656 51.1065 32.328C51.1065 32.88 51.2505 33.312 51.5385 33.624C51.8505 33.96 52.2825 34.128 52.8345 34.128ZM65.4352 9V21.24C65.4352 21.48 65.4472 21.78 65.4712 22.14C65.4952 22.5 65.5552 22.86 65.6512 23.22C65.7712 23.556 65.9392 23.856 66.1552 24.12C66.3712 24.36 66.6712 24.48 67.0552 24.48C68.2312 24.48 69.0952 23.172 69.6472 20.556H70.9792C70.7152 22.068 70.3792 23.268 69.9712 24.156C69.5632 25.02 69.1312 25.68 68.6752 26.136C68.2192 26.592 67.7512 26.88 67.2712 27C66.7912 27.144 66.3592 27.216 65.9752 27.216C65.1352 27.216 64.4512 27.06 63.9232 26.748C63.3952 26.412 62.9752 25.992 62.6632 25.488C62.3512 24.984 62.1352 24.42 62.0152 23.796C61.8952 23.172 61.8352 22.572 61.8352 21.996V9H65.4352ZM61.1872 3.816C61.1872 3.168 61.4152 2.604 61.8712 2.124C62.3272 1.644 62.8912 1.404 63.5632 1.404C64.2112 1.404 64.7752 1.644 65.2552 2.124C65.7352 2.604 65.9752 3.168 65.9752 3.816C65.9752 4.488 65.7352 5.052 65.2552 5.508C64.7752 5.964 64.2112 6.192 63.5632 6.192C62.8912 6.192 62.3272 5.964 61.8712 5.508C61.4152 5.052 61.1872 4.488 61.1872 3.816ZM72.7959 9V11.736C73.1559 11.088 73.5159 10.572 73.8759 10.188C74.2599 9.78 74.6439 9.48 75.0279 9.288C75.4119 9.096 75.7719 8.976 76.1079 8.928C76.4679 8.856 76.8039 8.82 77.1159 8.82C78.1959 8.82 79.0599 9.024 79.7079 9.432C80.3799 9.84 80.8839 10.368 81.2199 11.016C81.5559 11.64 81.7719 12.336 81.8679 13.104C81.9879 13.872 82.0479 14.616 82.0479 15.336C82.0479 16.128 82.0119 17.088 81.9399 18.216C81.8919 19.344 81.8679 20.436 81.8679 21.492C81.8679 21.732 81.8799 22.02 81.9039 22.356C81.9279 22.692 81.9999 23.016 82.1199 23.328C82.2399 23.64 82.4199 23.916 82.6599 24.156C82.8999 24.372 83.2479 24.48 83.7039 24.48C83.8719 24.48 84.0759 24.468 84.3159 24.444C84.5559 24.396 84.7359 24.312 84.8559 24.192V24.444C84.8559 25.092 84.7719 25.596 84.6039 25.956C84.4359 26.316 84.2319 26.592 83.9919 26.784C83.7519 26.976 83.4879 27.096 83.1999 27.144C82.9119 27.192 82.6599 27.216 82.4439 27.216C81.6999 27.216 81.0639 27.072 80.5359 26.784C80.0079 26.472 79.5639 26.064 79.2039 25.56C78.8679 25.056 78.6159 24.48 78.4479 23.832C78.3039 23.16 78.2319 22.452 78.2319 21.708C78.2319 21.492 78.2319 21.096 78.2319 20.52C78.2559 19.92 78.2679 19.284 78.2679 18.612C78.2919 17.94 78.3039 17.304 78.3039 16.704C78.3279 16.104 78.3399 15.684 78.3399 15.444C78.3399 14.676 78.2799 14.04 78.1599 13.536C78.0399 13.032 77.8719 12.636 77.6559 12.348C77.4399 12.06 77.1879 11.856 76.8999 11.736C76.6359 11.616 76.3479 11.556 76.0359 11.556C75.2919 11.556 74.6439 11.856 74.0919 12.456C73.5639 13.056 73.1319 14.064 72.7959 15.48V27H69.1959V9H72.7959ZM104.678 27V15.912L99.0263 1.296C98.1863 1.512 97.4903 1.86 96.9383 2.34C96.4103 2.796 95.9783 3.324 95.6423 3.924C95.3063 4.524 95.0663 5.172 94.9223 5.868C94.8023 6.564 94.7423 7.248 94.7423 7.92C94.7423 9.816 95.3423 11.46 96.5423 12.852C95.2703 12.852 94.2743 12.492 93.5543 11.772C92.8583 11.052 92.5103 9.84 92.5103 8.136C92.5103 7.032 92.7023 5.988 93.0863 5.004C93.4943 4.02 94.0703 3.156 94.8143 2.412C95.5583 1.668 96.4583 1.08 97.5143 0.647998C98.5943 0.215998 99.7943 -2.14577e-06 101.114 -2.14577e-06C101.378 -2.14577e-06 101.63 0.0119984 101.87 0.0359995C102.11 0.0359995 102.35 0.0479994 102.59 0.0719991L107.81 13.896L112.454 0.179998H114.326L108.566 15.912V27H104.678ZM118.577 9V21.24C118.577 21.48 118.589 21.78 118.613 22.14C118.637 22.5 118.697 22.86 118.793 23.22C118.913 23.556 119.081 23.856 119.297 24.12C119.513 24.36 119.813 24.48 120.197 24.48C121.373 24.48 122.237 23.172 122.789 20.556H124.121C123.857 22.068 123.521 23.268 123.113 24.156C122.705 25.02 122.273 25.68 121.817 26.136C121.361 26.592 120.893 26.88 120.413 27C119.933 27.144 119.501 27.216 119.117 27.216C118.277 27.216 117.593 27.06 117.065 26.748C116.537 26.412 116.117 25.992 115.805 25.488C115.493 24.984 115.277 24.42 115.157 23.796C115.037 23.172 114.977 22.572 114.977 21.996V9H118.577ZM125.973 1.8V21.24C125.973 21.48 125.985 21.78 126.009 22.14C126.033 22.5 126.093 22.86 126.189 23.22C126.309 23.556 126.477 23.856 126.693 24.12C126.909 24.36 127.209 24.48 127.593 24.48C128.769 24.48 129.633 23.172 130.185 20.556H131.517C131.253 22.068 130.917 23.268 130.509 24.156C130.101 25.02 129.669 25.68 129.213 26.136C128.757 26.592 128.289 26.88 127.809 27C127.329 27.144 126.897 27.216 126.513 27.216C125.673 27.216 124.989 27.06 124.461 26.748C123.933 26.412 123.513 25.992 123.201 25.488C122.889 24.984 122.673 24.42 122.553 23.796C122.433 23.172 122.373 22.572 122.373 21.996V2.304L125.973 1.8ZM133.299 9V11.484C133.923 10.332 134.583 9.6 135.279 9.288C135.975 8.976 136.635 8.82 137.259 8.82C137.883 8.82 138.423 8.904 138.879 9.072C139.359 9.24 139.767 9.468 140.103 9.756C140.439 10.044 140.715 10.38 140.931 10.764C141.171 11.148 141.363 11.568 141.507 12.024C141.843 11.304 142.191 10.74 142.551 10.332C142.911 9.9 143.271 9.576 143.631 9.36C143.991 9.12 144.339 8.976 144.675 8.928C145.035 8.856 145.359 8.82 145.647 8.82C146.727 8.82 147.591 9.024 148.239 9.432C148.911 9.84 149.415 10.368 149.751 11.016C150.087 11.64 150.303 12.336 150.399 13.104C150.519 13.848 150.579 14.568 150.579 15.264C150.579 15.696 150.567 16.176 150.543 16.704C150.519 17.208 150.495 17.736 150.471 18.288C150.447 18.816 150.423 19.356 150.399 19.908C150.375 20.436 150.363 20.928 150.363 21.384C150.363 21.576 150.375 21.852 150.399 22.212C150.423 22.548 150.483 22.884 150.579 23.22C150.675 23.556 150.831 23.856 151.047 24.12C151.263 24.36 151.575 24.48 151.983 24.48C152.535 24.48 153.027 24.168 153.459 23.544C153.915 22.92 154.287 21.924 154.575 20.556H155.907C155.643 22.068 155.307 23.268 154.899 24.156C154.491 25.02 154.059 25.68 153.603 26.136C153.147 26.592 152.691 26.88 152.235 27C151.779 27.144 151.359 27.216 150.975 27.216C150.207 27.216 149.559 27.072 149.031 26.784C148.503 26.472 148.071 26.064 147.735 25.56C147.399 25.056 147.147 24.468 146.979 23.796C146.835 23.124 146.763 22.428 146.763 21.708C146.763 21.492 146.763 21.096 146.763 20.52C146.787 19.92 146.799 19.284 146.799 18.612C146.823 17.94 146.835 17.304 146.835 16.704C146.859 16.104 146.871 15.684 146.871 15.444C146.871 14.676 146.811 14.04 146.691 13.536C146.571 13.032 146.403 12.636 146.187 12.348C145.971 12.06 145.719 11.856 145.431 11.736C145.167 11.616 144.879 11.556 144.567 11.556C143.823 11.556 143.211 11.856 142.731 12.456C142.275 13.056 141.951 14.064 141.759 15.48V27H138.159V14.976C138.159 14.544 138.135 14.124 138.087 13.716C138.063 13.308 137.979 12.948 137.835 12.636C137.691 12.3 137.487 12.036 137.223 11.844C136.959 11.652 136.599 11.556 136.143 11.556C135.375 11.556 134.787 11.88 134.379 12.528C133.995 13.152 133.635 14.136 133.299 15.48V27H129.699V9H133.299ZM167.536 9V21.24C167.536 21.528 167.548 21.864 167.572 22.248C167.596 22.608 167.656 22.956 167.752 23.292C167.872 23.628 168.04 23.916 168.256 24.156C168.496 24.372 168.832 24.48 169.264 24.48C169.456 24.48 169.66 24.456 169.876 24.408C170.116 24.36 170.308 24.312 170.452 24.264C170.476 24.384 170.488 24.492 170.488 24.588C170.512 24.684 170.524 24.792 170.524 24.912C170.524 25.632 170.248 26.196 169.696 26.604C169.144 27.012 168.52 27.216 167.824 27.216C167.08 27.216 166.408 26.964 165.808 26.46C165.208 25.932 164.8 25.056 164.584 23.832C164.224 24.768 163.636 25.572 162.82 26.244C162.004 26.892 161.02 27.216 159.868 27.216C159.148 27.216 158.416 27.072 157.672 26.784C156.952 26.472 156.304 25.992 155.728 25.344C155.152 24.696 154.672 23.856 154.288 22.824C153.928 21.792 153.748 20.544 153.748 19.08C153.748 17.952 153.868 16.788 154.108 15.588C154.372 14.364 154.768 13.26 155.296 12.276C155.848 11.268 156.556 10.44 157.42 9.792C158.284 9.144 159.316 8.82 160.516 8.82C161.14 8.82 161.776 8.952 162.424 9.216C163.096 9.48 163.6 9.984 163.936 10.728V9H167.536ZM182.152 23.94C181.96 23.892 181.804 23.772 181.684 23.58C181.564 23.388 181.504 23.196 181.504 23.004C181.504 22.62 181.648 22.332 181.936 22.14C182.248 21.924 182.596 21.816 182.98 21.816C183.508 21.816 183.988 21.996 184.42 22.356C184.852 22.716 185.068 23.244 185.068 23.94C185.068 24.3 184.972 24.66 184.78 25.02C184.588 25.38 184.312 25.704 183.952 25.992C183.592 26.28 183.16 26.52 182.656 26.712C182.152 26.904 181.588 27 180.964 27H171.532L179.308 10.944H176.212C175.684 10.944 175.204 10.98 174.772 11.052C174.364 11.1 174.16 11.232 174.16 11.448C174.16 11.688 174.256 11.88 174.448 12.024C174.664 12.168 174.772 12.36 174.772 12.6C174.772 12.864 174.616 13.116 174.304 13.356C174.016 13.596 173.632 13.716 173.152 13.716C172.48 13.716 171.964 13.464 171.604 12.96C171.268 12.432 171.1 11.82 171.1 11.124C171.1 10.5 171.364 9.996 171.892 9.612C172.444 9.204 173.416 9 174.808 9H183.736L176.032 24.48C176.176 24.48 176.452 24.492 176.86 24.516C177.292 24.54 177.748 24.564 178.228 24.588C178.708 24.612 179.176 24.636 179.632 24.66C180.088 24.684 180.436 24.696 180.676 24.696C181.108 24.696 181.444 24.624 181.684 24.48C181.948 24.336 182.104 24.156 182.152 23.94ZM160.624 24.48C161.08 24.48 161.512 24.372 161.92 24.156C162.328 23.94 162.676 23.652 162.964 23.292C163.276 22.932 163.516 22.524 163.684 22.068C163.852 21.588 163.936 21.084 163.936 20.556V12.348C163.768 11.94 163.516 11.58 163.18 11.268C162.844 10.956 162.364 10.8 161.74 10.8C160.972 10.8 160.324 11.064 159.796 11.592C159.268 12.096 158.836 12.744 158.5 13.536C158.164 14.328 157.912 15.216 157.744 16.2C157.6 17.16 157.528 18.084 157.528 18.972C157.528 20.916 157.828 22.32 158.428 23.184C159.028 24.048 159.76 24.48 160.624 24.48Z" fill="black"/>
</svg>
