<svg width="14" height="14" viewBox="0 0 14 14" fill="none" xmlns="http://www.w3.org/2000/svg">
<g clip-path="url(#clip0_386_615)">
<path d="M6.5 12.5C9.81371 12.5 12.5 9.81371 12.5 6.5C12.5 3.18629 9.81371 0.5 6.5 0.5C3.18629 0.5 0.5 3.18629 0.5 6.5C0.5 9.81371 3.18629 12.5 6.5 12.5Z" stroke="#424242" stroke-linecap="round" stroke-linejoin="round"/>
<path d="M10.74 10.7402L13.5 13.5002" stroke="#424242" stroke-linecap="round" stroke-linejoin="round"/>
<path d="M3.50018 5.84833C3.50018 5.35986 3.89617 4.96387 4.38465 4.96387H8.61537C9.10385 4.96387 9.49983 5.35986 9.49983 5.84833V8.36487C9.49983 8.85335 9.10385 9.24934 8.61537 9.24934H4.38465C3.89617 9.24934 3.50018 8.85335 3.50018 8.36487V5.84833Z" stroke="#424242" stroke-linecap="round" stroke-linejoin="round"/>
<path d="M5.21436 4.76006V4.25C5.21436 3.69772 5.66207 3.25 6.21436 3.25H6.78563C7.33792 3.25 7.78563 3.69772 7.78563 4.25V4.76006" stroke="#424242" stroke-linecap="round" stroke-linejoin="round"/>
</g>
<defs>
<clipPath id="clip0_386_615">
<rect width="14" height="14" fill="white"/>
</clipPath>
</defs>
</svg>
