<svg width="14" height="14" viewBox="0 0 14 14" fill="none" xmlns="http://www.w3.org/2000/svg">
<g clip-path="url(#clip0_383_451)">
<path d="M3.85413 9.41895V13.271" stroke="#424242" stroke-linecap="round" stroke-linejoin="round"/>
<path d="M10.146 9.41895V13.271" stroke="#424242" stroke-linecap="round" stroke-linejoin="round"/>
<path d="M7 0.729004V2.18734" stroke="#424242" stroke-linecap="round" stroke-linejoin="round"/>
<path d="M7.58341 2.1875H6.41675" stroke="#424242" stroke-linecap="round" stroke-linejoin="round"/>
<path d="M10.5833 0.729004V2.18732" stroke="#424242" stroke-linecap="round" stroke-linejoin="round"/>
<path d="M11.1667 2.1875H10" stroke="#424242" stroke-linecap="round" stroke-linejoin="round"/>
<path d="M3.5 0.729004V2.18734" stroke="#424242" stroke-linecap="round" stroke-linejoin="round"/>
<path d="M2.9166 2.1875H4.08326" stroke="#424242" stroke-linecap="round" stroke-linejoin="round"/>
<path d="M11.0835 6.625H8.75012" stroke="#424242" stroke-linecap="round" stroke-linejoin="round"/>
<path d="M12.625 0.729004H1.375C1.09886 0.729004 0.875 0.952862 0.875 1.229V8.919C0.875 9.19515 1.09886 9.419 1.375 9.419H12.625C12.9011 9.419 13.125 9.19515 13.125 8.919V1.229C13.125 0.952862 12.9011 0.729004 12.625 0.729004Z" stroke="#424242" stroke-linecap="round" stroke-linejoin="round"/>
</g>
<defs>
<clipPath id="clip0_383_451">
<rect width="14" height="14" fill="white"/>
</clipPath>
</defs>
</svg>
