<svg width="14" height="14" viewBox="0 0 14 14" fill="none" xmlns="http://www.w3.org/2000/svg">
<path d="M0.548065 3.08447L2.74248 4.26545L4.70124 3.92631C5.36246 3.81183 6.04008 4.00111 6.54626 4.44168" stroke="#424242" stroke-linecap="round" stroke-linejoin="round"/>
<path d="M11.2822 9.28239L8.17962 11.4858C7.49762 11.9702 6.58622 11.9789 5.89504 11.5077L0.548065 7.86279" stroke="#424242" stroke-linecap="round" stroke-linejoin="round"/>
<path d="M13.4023 7.83923L11.207 9.33934L7.80082 6.58903L6.54792 7.50091C6.03847 7.8717 5.32678 7.7718 4.9391 7.27508C4.55231 6.7795 4.62693 6.06672 5.10797 5.66198L6.41255 4.56433C7.03782 4.03824 7.85064 3.78997 8.66315 3.87691L10.6964 4.09445L13.4023 2.63184" stroke="#424242" stroke-linecap="round" stroke-linejoin="round"/>
<path d="M7.80127 6.59632C8.62088 7.32654 9.78322 6.95401 10.2154 6.35791" stroke="#424242" stroke-linecap="round" stroke-linejoin="round"/>
</svg>
