<svg width="15" height="15" viewBox="0 0 377 377" fill="none" xmlns="http://www.w3.org/2000/svg">
<path d="M37.4523 51.1787C30.1714 51.1787 23.1889 54.0711 18.0406 59.2192C12.8923 64.3676 10 71.3501 10 78.631V339.428C10 346.708 12.8923 353.692 18.0406 358.839C23.1889 363.987 30.1714 366.88 37.4523 366.88H339.428C346.708 366.88 353.692 363.987 358.839 358.839C363.987 353.692 366.88 346.708 366.88 339.428V78.631C366.88 71.3501 363.987 64.3676 358.839 59.2192C353.692 54.0711 346.708 51.1787 339.428 51.1787H284.523" stroke="#000000" stroke-width="20" stroke-linecap="round" stroke-linejoin="round"/>
<path d="M10 147.263H366.88" stroke="#000000" stroke-width="20" stroke-linecap="round" stroke-linejoin="round"/>
<path d="M92.3569 10V92.3569" stroke="#000000" stroke-width="20" stroke-linecap="round" stroke-linejoin="round"/>
<path d="M284.523 10V92.3569" stroke="#000000" stroke-width="20" stroke-linecap="round" stroke-linejoin="round"/>
<path d="M92.3569 51.1787H229.618" stroke="#000000" stroke-width="20" stroke-linecap="round" stroke-linejoin="round"/>
</svg>
