<svg width="378" height="378" viewBox="0 0 378 378" fill="none" xmlns="http://www.w3.org/2000/svg">
<path d="M161.916 127.326C245.305 127.326 312.904 101.27 312.904 69.1274C312.904 36.9851 245.305 10.9285 161.916 10.9285C78.5281 10.9285 10.9287 36.9851 10.9287 69.1274C10.9287 101.27 78.5281 127.326 161.916 127.326Z" stroke="black" stroke-width="20" stroke-linecap="round" stroke-linejoin="round"/>
<path d="M312.904 203.098V69.1306" stroke="black" stroke-width="20" stroke-linecap="round" stroke-linejoin="round"/>
<path d="M10.9287 69.1306V254.708C10.9287 282.16 59.7938 304.945 125.954 311.259" stroke="black" stroke-width="20" stroke-linecap="round" stroke-linejoin="round"/>
<path d="M312.904 161.916C312.904 194.035 244.273 220.115 161.916 220.115C79.5595 220.115 10.9287 194.035 10.9287 161.916" stroke="black" stroke-width="20" stroke-linecap="round" stroke-linejoin="round"/>
<path d="M367.809 244.273L257.999 367.808L203.095 326.63" stroke="black" stroke-width="20" stroke-linecap="round" stroke-linejoin="round"/>
</svg>
