<svg width="378" height="377" viewBox="0 0 378 377" fill="none" xmlns="http://www.w3.org/2000/svg">
<path d="M162.659 127.801C246.695 127.801 314.819 101.542 314.819 69.1505C314.819 36.7588 246.695 10.5 162.659 10.5C78.6239 10.5 10.5 36.7588 10.5 69.1505C10.5 101.542 78.6239 127.801 162.659 127.801Z" stroke="black" stroke-width="20" stroke-linecap="round" stroke-linejoin="round"/>
<path d="M314.818 162.663V69.1538" stroke="black" stroke-width="20" stroke-linecap="round" stroke-linejoin="round"/>
<path d="M10.5 69.1538V256.171C10.5 285.015 64.1962 308.104 134.994 313.612" stroke="black" stroke-width="20" stroke-linecap="round" stroke-linejoin="round"/>
<path d="M162.659 220.203C79.6633 221.31 10.5 195.028 10.5 162.659" stroke="black" stroke-width="20" stroke-linecap="round" stroke-linejoin="round"/>
<path d="M367.38 311.18L344.114 328.765L326.527 305.498" stroke="black" stroke-width="20" stroke-linecap="round" stroke-linejoin="round"/>
<path d="M342.827 327.019C346.667 319.641 349.273 311.457 350.341 302.712C355.111 263.595 327.265 228.016 288.147 223.246C275.766 221.736 263.74 223.493 252.933 227.841" stroke="black" stroke-width="20" stroke-linecap="round" stroke-linejoin="round"/>
<path d="M191.567 278.04L214.834 260.454L232.42 283.72" stroke="black" stroke-width="20" stroke-linecap="round" stroke-linejoin="round"/>
<path d="M216.115 262.213C212.273 269.593 209.667 277.775 208.601 286.52C203.83 325.638 231.675 361.216 270.793 365.988C283.175 367.499 295.201 365.739 306.007 361.393" stroke="black" stroke-width="20" stroke-linecap="round" stroke-linejoin="round"/>
</svg>
