<svg width="27" height="27" viewBox="0 0 378 378" fill="none" xmlns="http://www.w3.org/2000/svg">
<g opacity="0.9">
<path d="M285.416 299.141H340.321C347.601 299.141 354.585 296.248 359.732 291.1C364.88 285.953 367.773 278.969 367.773 271.689V148.153C367.773 140.873 364.88 133.89 359.732 128.742C354.585 123.594 347.601 120.701 340.321 120.701H38.3454C31.0645 120.701 24.082 123.594 18.9337 128.742C13.7854 133.89 10.8931 140.873 10.8931 148.153V271.689C10.8931 278.969 13.7854 285.953 18.9337 291.1C24.082 296.248 31.0645 299.141 38.3454 299.141H93.25" stroke="black" stroke-width="20" stroke-linecap="round" stroke-linejoin="round"/>
<path d="M93.25 257.963V354.046C93.25 357.686 94.6962 361.178 97.2704 363.753C99.8443 366.325 103.336 367.772 106.976 367.772H271.69C275.33 367.772 278.822 366.325 281.397 363.753C283.969 361.178 285.416 357.686 285.416 354.046V257.963H93.25Z" stroke="black" stroke-width="20" stroke-linecap="round" stroke-linejoin="round"/>
<path d="M285.416 120.702V24.6187C285.416 20.9783 283.969 17.487 281.397 14.9129C278.822 12.3387 275.33 10.8926 271.69 10.8926H106.976C103.336 10.8926 99.8443 12.3387 97.2704 14.9129C94.6962 17.487 93.25 20.9783 93.25 24.6187V120.702" stroke="black" stroke-width="20" stroke-linecap="round" stroke-linejoin="round"/>
<path d="M299.142 189.333H271.69" stroke="black" stroke-width="20" stroke-linecap="round" stroke-linejoin="round"/>
</g>
</svg>
